<svg version="1.1" xmlns="http://www.w3.org/2000/svg" viewBox="0 0 235.5 244.5" width="235.5" height="244.5">
  <!-- svg-source:excalidraw -->
  
  <defs>
    <style class="style-fonts">
      @font-face {
        font-family: "Virgil";
        src: url("https://excalidraw.com/Virgil.woff2");
      }
      @font-face {
        font-family: "Cascadia";
        src: url("https://excalidraw.com/Cascadia.woff2");
      }
    </style>
    
  </defs>
  <rect x="0" y="0" width="235.5" height="244.5" fill="#ffffff"/><g transform="translate(52 43) rotate(0 -20.5 21.75)" stroke="none"><path fill="#1e1e1e" d="M -0.65,1.73 Q -0.65,1.73 -3.84,1.08 -7.03,0.43 -10.45,0.35 -13.87,0.26 -18.48,1.72 -23.09,3.17 -25.75,4.76 -28.40,6.35 -29.26,7.04 -30.12,7.73 -29.18,8.94 -28.24,10.15 -24.38,12.28 -20.52,14.40 -16.28,16.78 -12.04,19.16 -8.61,21.21 -5.18,23.26 -2.85,25.13 -0.53,26.99 0.60,30.00 1.74,33.00 -0.30,36.08 -2.36,39.16 -6.27,41.69 -10.18,44.22 -15.14,46.01 -20.10,47.80 -24.95,48.53 -29.80,49.26 -33.82,47.05 -37.84,44.84 -39.95,41.89 -42.07,38.94 -42.18,38.75 -42.29,38.57 -42.33,38.36 -42.38,38.16 -42.36,37.94 -42.33,37.73 -42.25,37.54 -42.16,37.35 -42.01,37.19 -41.86,37.04 -41.68,36.94 -41.49,36.84 -41.28,36.81 -41.07,36.77 -40.86,36.81 -40.65,36.84 -40.46,36.94 -40.27,37.04 -40.13,37.19 -39.98,37.35 -39.89,37.54 -39.80,37.73 -39.78,37.94 -39.76,38.16 -39.80,38.36 -39.85,38.57 -39.96,38.75 -40.07,38.94 -40.23,39.07 -40.39,39.21 -40.59,39.29 -40.79,39.37 -41.00,39.38 -41.21,39.39 -41.42,39.33 -41.62,39.28 -41.80,39.16 -41.97,39.04 -42.10,38.87 -42.23,38.70 -42.30,38.50 -42.37,38.30 -42.37,38.08 -42.37,37.87 -42.30,37.67 -42.23,37.47 -42.10,37.30 -41.97,37.13 -41.80,37.01 -41.62,36.89 -41.42,36.84 -41.21,36.78 -41.00,36.79 -40.79,36.80 -40.59,36.88 -40.39,36.96 -40.23,37.10 -40.07,37.23 -40.07,37.23 -40.07,37.23 -37.98,39.23 -35.90,41.22 -32.98,42.44 -30.07,43.65 -26.04,42.98 -22.02,42.30 -17.59,40.79 -13.16,39.27 -9.86,37.41 -6.56,35.54 -5.21,33.23 -3.86,30.91 -5.86,29.34 -7.86,27.76 -11.24,25.78 -14.61,23.79 -18.93,21.40 -23.25,19.02 -28.03,16.03 -32.81,13.04 -33.94,10.33 -35.06,7.62 -33.35,4.49 -31.64,1.36 -28.24,-0.61 -24.83,-2.59 -19.25,-4.13 -13.67,-5.67 -9.36,-5.35 -5.04,-5.03 -2.19,-3.38 0.65,-1.73 0.85,-1.62 1.05,-1.52 1.22,-1.37 1.38,-1.22 1.51,-1.04 1.64,-0.85 1.72,-0.64 1.80,-0.44 1.82,-0.21 1.85,0.00 1.82,0.22 1.79,0.44 1.71,0.65 1.63,0.86 1.51,1.04 1.38,1.23 1.21,1.37 1.05,1.52 0.85,1.63 0.65,1.73 0.43,1.78 0.22,1.84 -0.00,1.84 -0.22,1.83 -0.44,1.78 -0.66,1.73 -0.65,1.73 L -0.65,1.73 Z"/></g><g transform="translate(42 17.5) rotate(0 -2.5 48)" stroke="none"><path fill="#1e1e1e" d="M 2.11,0 Q 2.11,0 2.35,4.6 2.58,9.2 2.73,18.48 2.88,27.77 2.34,37.55 1.80,47.34 0.91,56.95 0.02,66.57 -1.03,75.05 -2.10,83.53 -2.69,87.13 -3.29,90.73 -3.34,90.94 -3.39,91.15 -3.50,91.33 -3.61,91.51 -3.78,91.64 -3.94,91.78 -4.14,91.85 -4.34,91.92 -4.55,91.93 -4.76,91.94 -4.97,91.88 -5.17,91.82 -5.34,91.69 -5.52,91.57 -5.64,91.40 -5.77,91.23 -5.83,91.03 -5.90,90.82 -5.89,90.61 -5.89,90.40 -5.82,90.20 -5.74,90.00 -5.61,89.83 -5.48,89.66 -5.30,89.55 -5.12,89.43 -4.92,89.38 -4.71,89.33 -4.50,89.34 -4.29,89.36 -4.09,89.44 -3.90,89.53 -3.74,89.67 -3.58,89.81 -3.47,89.99 -3.37,90.18 -3.32,90.38 -3.28,90.59 -3.31,90.80 -3.34,91.01 -3.43,91.20 -3.52,91.40 -3.67,91.55 -3.82,91.70 -4.01,91.79 -4.20,91.89 -4.41,91.92 -4.62,91.95 -4.83,91.91 -5.04,91.87 -5.23,91.77 -5.41,91.67 -5.55,91.51 -5.70,91.35 -5.78,91.16 -5.87,90.96 -5.89,90.75 -5.91,90.54 -5.91,90.54 -5.91,90.54 -5.96,86.89 -6.02,83.24 -5.81,74.66 -5.60,66.09 -4.85,56.54 -4.10,46.99 -3.49,37.38 -2.88,27.77 -2.73,18.48 -2.58,9.2 -2.35,4.6 -2.11,0 -2.08,-0.25 -2.05,-0.50 -1.96,-0.74 -1.87,-0.98 -1.73,-1.19 -1.58,-1.40 -1.39,-1.57 -1.20,-1.74 -0.97,-1.86 -0.75,-1.98 -0.50,-2.04 -0.25,-2.10 0.00,-2.10 0.25,-2.10 0.50,-2.04 0.75,-1.98 0.97,-1.86 1.20,-1.74 1.39,-1.57 1.58,-1.40 1.73,-1.19 1.87,-0.98 1.96,-0.74 2.05,-0.50 2.08,-0.25 2.11,0.00 2.11,0.00 L 2.11,0 Z"/></g><g transform="translate(105.5 43.5) rotate(0 -16 19.75)" stroke="none"><path fill="#1e1e1e" d="M -0.54,2.16 Q -0.54,2.16 -2.84,1.61 -5.14,1.07 -8.66,1.07 -12.18,1.07 -15.76,1.61 -19.33,2.15 -22.17,3.90 -25.00,5.64 -26.13,6.96 -27.27,8.28 -27.00,9.35 -26.73,10.43 -24.27,12.69 -21.80,14.95 -18.31,17.64 -14.82,20.33 -11.89,22.35 -8.97,24.37 -6.68,25.97 -4.40,27.57 -2.83,29.36 -1.27,31.15 -1.23,33.56 -1.19,35.98 -3.03,38.05 -4.88,40.12 -7.80,41.40 -10.72,42.68 -14.24,43.18 -17.76,43.67 -21.89,41.70 -26.01,39.73 -28.79,37.11 -31.56,34.49 -31.71,34.33 -31.85,34.18 -31.94,33.98 -32.03,33.79 -32.05,33.58 -32.07,33.37 -32.02,33.16 -31.98,32.95 -31.87,32.77 -31.75,32.59 -31.59,32.45 -31.43,32.32 -31.23,32.24 -31.03,32.16 -30.82,32.15 -30.61,32.14 -30.40,32.20 -30.20,32.26 -30.02,32.38 -29.85,32.50 -29.72,32.67 -29.60,32.84 -29.53,33.04 -29.46,33.25 -29.46,33.46 -29.47,33.67 -29.54,33.87 -29.60,34.07 -29.73,34.24 -29.86,34.41 -30.04,34.53 -30.22,34.64 -30.42,34.70 -30.63,34.76 -30.84,34.74 -31.05,34.73 -31.25,34.65 -31.45,34.57 -31.61,34.43 -31.77,34.29 -31.88,34.11 -31.98,33.93 -32.03,33.72 -32.07,33.51 -32.05,33.30 -32.02,33.09 -31.93,32.90 -31.84,32.70 -31.69,32.55 -31.55,32.40 -31.36,32.30 -31.17,32.20 -30.96,32.17 -30.75,32.14 -30.54,32.17 -30.33,32.21 -30.14,32.31 -29.96,32.41 -29.96,32.41 -29.96,32.41 -27.13,34.11 -24.31,35.82 -21.21,36.93 -18.12,38.04 -15.48,37.68 -12.84,37.31 -10.73,36.56 -8.62,35.81 -7.03,34.48 -5.43,33.14 -6.37,32.43 -7.32,31.72 -9.58,30.14 -11.85,28.56 -14.89,26.48 -17.93,24.39 -21.72,21.50 -25.50,18.60 -28.66,15.14 -31.83,11.69 -31.94,8.79 -32.06,5.89 -30.04,3.27 -28.02,0.66 -24.11,-1.44 -20.20,-3.54 -16.02,-3.95 -11.84,-4.35 -7.94,-3.86 -4.05,-3.37 -1.75,-2.76 0.54,-2.16 0.79,-2.06 1.04,-1.97 1.26,-1.81 1.48,-1.66 1.66,-1.46 1.83,-1.26 1.96,-1.02 2.08,-0.78 2.15,-0.52 2.21,-0.26 2.21,0.00 2.21,0.27 2.14,0.53 2.08,0.79 1.95,1.03 1.83,1.27 1.65,1.47 1.47,1.67 1.25,1.82 1.02,1.97 0.77,2.07 0.52,2.16 0.25,2.19 -0.00,2.23 -0.27,2.19 -0.54,2.16 -0.54,2.16 L -0.54,2.16 Z"/></g><g transform="translate(96.5 14.5) rotate(0 -3.5 50.25)" stroke="none"><path fill="#1e1e1e" d="M 2.23,0.23 Q 2.23,0.23 1.94,5.72 1.66,11.22 1.22,19.10 0.79,26.98 0.32,36.51 -0.14,46.04 -0.81,55.73 -1.48,65.41 -2.77,75.52 -4.07,85.63 -4.66,89.92 -5.24,94.21 -5.29,94.42 -5.34,94.63 -5.45,94.81 -5.56,94.99 -5.73,95.12 -5.89,95.26 -6.09,95.33 -6.29,95.41 -6.50,95.42 -6.71,95.42 -6.92,95.36 -7.12,95.30 -7.29,95.18 -7.47,95.06 -7.59,94.89 -7.72,94.72 -7.79,94.52 -7.85,94.31 -7.85,94.10 -7.84,93.89 -7.77,93.69 -7.70,93.49 -7.57,93.32 -7.44,93.15 -7.26,93.04 -7.08,92.92 -6.88,92.87 -6.67,92.81 -6.46,92.83 -6.25,92.84 -6.05,92.92 -5.86,93.01 -5.70,93.15 -5.54,93.29 -5.43,93.47 -5.32,93.65 -5.28,93.86 -5.24,94.07 -5.26,94.28 -5.29,94.49 -5.38,94.68 -5.48,94.88 -5.62,95.03 -5.77,95.18 -5.96,95.28 -6.15,95.37 -6.36,95.40 -6.57,95.43 -6.78,95.40 -6.99,95.36 -7.18,95.26 -7.36,95.15 -7.51,95.00 -7.65,94.84 -7.74,94.65 -7.82,94.45 -7.84,94.24 -7.86,94.03 -7.86,94.03 -7.86,94.03 -7.84,89.70 -7.83,85.37 -7.71,75.18 -7.59,65.00 -6.96,55.36 -6.33,45.71 -5.77,36.14 -5.22,26.57 -4.59,18.60 -3.96,10.62 -3.09,5.19 -2.23,-0.23 -2.17,-0.49 -2.11,-0.76 -1.98,-1.00 -1.86,-1.24 -1.69,-1.45 -1.51,-1.65 -1.29,-1.81 -1.07,-1.97 -0.82,-2.06 -0.57,-2.16 -0.30,-2.20 -0.03,-2.24 0.23,-2.21 0.50,-2.18 0.75,-2.09 1.01,-2.00 1.23,-1.85 1.46,-1.70 1.64,-1.50 1.82,-1.30 1.95,-1.06 2.08,-0.82 2.15,-0.56 2.22,-0.30 2.22,-0.03 2.23,0.23 2.23,0.23 L 2.23,0.23 Z"/></g><g transform="translate(152 46.5) rotate(0 -15.5 13.25)" stroke="none"><path fill="#1e1e1e" d="M -0.77,1.81 Q -0.77,1.81 -4.01,1.07 -7.25,0.34 -11.56,-0.00 -15.88,-0.36 -19.18,-0.15 -22.48,0.05 -24.26,0.58 -26.04,1.11 -25.87,2.56 -25.71,4.01 -24.29,5.52 -22.88,7.02 -20.44,8.71 -18.00,10.40 -14.98,12.03 -11.95,13.65 -9.20,15.12 -6.44,16.58 -4.43,17.88 -2.41,19.18 -1.14,21.15 0.12,23.13 -0.16,25.11 -0.45,27.09 -2.62,28.94 -4.79,30.79 -8.91,31.83 -13.03,32.86 -16.67,32.54 -20.32,32.21 -23.60,29.12 -26.88,26.04 -27.03,25.89 -27.18,25.74 -27.28,25.55 -27.37,25.36 -27.40,25.15 -27.43,24.94 -27.40,24.73 -27.36,24.52 -27.26,24.34 -27.15,24.15 -27.00,24.01 -26.84,23.86 -26.64,23.78 -26.45,23.69 -26.24,23.67 -26.03,23.65 -25.82,23.70 -25.61,23.75 -25.43,23.86 -25.25,23.98 -25.12,24.14 -24.98,24.30 -24.91,24.50 -24.83,24.70 -24.83,24.91 -24.82,25.13 -24.88,25.33 -24.94,25.53 -25.06,25.71 -25.18,25.88 -25.35,26.01 -25.53,26.13 -25.73,26.20 -25.93,26.26 -26.14,26.26 -26.36,26.25 -26.56,26.18 -26.76,26.11 -26.92,25.98 -27.09,25.85 -27.21,25.67 -27.32,25.49 -27.38,25.29 -27.43,25.08 -27.41,24.87 -27.40,24.66 -27.32,24.46 -27.23,24.27 -27.09,24.11 -26.95,23.95 -26.77,23.84 -26.59,23.73 -26.38,23.69 -26.17,23.65 -25.96,23.68 -25.75,23.70 -25.56,23.80 -25.36,23.89 -25.36,23.89 -25.36,23.89 -22.41,25.19 -19.45,26.48 -16.87,26.64 -14.28,26.79 -11.17,26.24 -8.06,25.70 -6.63,24.51 -5.21,23.32 -7.00,22.25 -8.80,21.19 -11.62,19.80 -14.45,18.41 -17.80,16.70 -21.14,14.99 -24.21,12.89 -27.29,10.79 -29.37,8.12 -31.45,5.44 -31.76,2.33 -32.06,-0.77 -30.19,-2.92 -28.31,-5.06 -25.60,-5.85 -22.89,-6.64 -19.00,-6.82 -15.12,-7.00 -9.97,-6.26 -4.82,-5.52 -2.02,-3.66 0.77,-1.81 0.98,-1.69 1.18,-1.57 1.35,-1.40 1.53,-1.24 1.65,-1.04 1.78,-0.84 1.85,-0.61 1.93,-0.39 1.95,-0.15 1.97,0.08 1.93,0.31 1.89,0.55 1.79,0.77 1.70,0.98 1.56,1.17 1.41,1.36 1.23,1.51 1.05,1.66 0.83,1.77 0.62,1.87 0.38,1.91 0.15,1.96 -0.08,1.95 -0.32,1.94 -0.54,1.87 -0.77,1.81 -0.77,1.81 L -0.77,1.81 Z"/></g><g transform="translate(135.5 10) rotate(0 -2.25 44.5)" stroke="none"><path fill="#1e1e1e" d="M 2.14,0.59 Q 2.14,0.59 1.64,3.24 1.15,5.89 0.66,8.78 0.18,11.67 -0.21,17.95 -0.61,24.24 -0.77,32.64 -0.93,41.04 -0.60,49.42 -0.26,57.81 0.29,65.23 0.85,72.64 1.15,77.25 1.46,81.86 1.19,83.89 0.93,85.92 0.92,86.14 0.91,86.35 0.84,86.55 0.76,86.75 0.63,86.91 0.49,87.08 0.31,87.19 0.13,87.30 -0.06,87.35 -0.27,87.40 -0.48,87.38 -0.69,87.36 -0.89,87.28 -1.08,87.19 -1.24,87.05 -1.40,86.91 -1.50,86.72 -1.60,86.53 -1.64,86.33 -1.68,86.12 -1.65,85.91 -1.62,85.70 -1.52,85.51 -1.43,85.32 -1.28,85.17 -1.12,85.02 -0.93,84.93 -0.74,84.83 -0.53,84.81 -0.32,84.78 -0.11,84.82 0.09,84.86 0.27,84.97 0.45,85.07 0.59,85.23 0.74,85.39 0.82,85.59 0.90,85.79 0.92,86.00 0.93,86.21 0.88,86.41 0.83,86.62 0.71,86.80 0.59,86.98 0.43,87.11 0.26,87.24 0.06,87.31 -0.13,87.38 -0.34,87.39 -0.56,87.39 -0.76,87.33 -0.96,87.26 -1.13,87.14 -1.30,87.01 -1.43,86.84 -1.55,86.67 -1.61,86.46 -1.67,86.26 -1.67,86.26 -1.67,86.26 -2.44,84.36 -3.21,82.46 -4.09,77.83 -4.97,73.20 -5.84,65.63 -6.72,58.07 -7.05,49.47 -7.38,40.86 -7.08,32.29 -6.79,23.72 -6.11,17.13 -5.43,10.55 -4.73,7.50 -4.02,4.45 -3.08,1.93 -2.14,-0.59 -2.04,-0.84 -1.93,-1.09 -1.77,-1.30 -1.62,-1.52 -1.41,-1.69 -1.20,-1.86 -0.96,-1.98 -0.72,-2.10 -0.46,-2.15 -0.20,-2.21 0.06,-2.20 0.33,-2.19 0.59,-2.12 0.84,-2.05 1.08,-1.92 1.31,-1.79 1.51,-1.60 1.70,-1.42 1.85,-1.20 1.99,-0.97 2.08,-0.72 2.17,-0.46 2.19,-0.20 2.22,0.06 2.18,0.33 2.14,0.59 2.14,0.59 L 2.14,0.59 Z"/></g><g transform="translate(38.5 135.5) rotate(0 0.5 35.75)" stroke="none"><path fill="#1e1e1e" d="M 1.81,0.63 Q 1.81,0.63 -4.22,19.66 -10.26,38.68 -11.44,47.71 -12.62,56.73 -11.13,60.14 -9.63,63.54 -6.48,64.76 -3.32,65.98 0.59,66.05 4.51,66.12 8.68,65.92 12.84,65.72 17.29,65.45 21.73,65.17 21.94,65.16 22.15,65.14 22.36,65.20 22.56,65.25 22.74,65.37 22.92,65.49 23.05,65.65 23.18,65.82 23.25,66.02 23.32,66.22 23.32,66.44 23.32,66.65 23.25,66.85 23.19,67.05 23.06,67.22 22.93,67.39 22.76,67.51 22.58,67.64 22.38,67.69 22.18,67.75 21.96,67.74 21.75,67.73 21.55,67.66 21.35,67.58 21.19,67.44 21.03,67.31 20.92,67.13 20.81,66.95 20.76,66.74 20.71,66.53 20.73,66.32 20.75,66.11 20.84,65.91 20.93,65.72 21.07,65.57 21.22,65.41 21.40,65.31 21.59,65.21 21.80,65.17 22.01,65.14 22.22,65.17 22.43,65.20 22.62,65.30 22.81,65.40 22.95,65.55 23.10,65.70 23.19,65.89 23.28,66.09 23.31,66.30 23.33,66.51 23.29,66.72 23.25,66.92 23.14,67.11 23.03,67.29 22.87,67.43 22.71,67.57 22.51,67.65 22.32,67.73 22.32,67.73 22.32,67.73 17.80,69.51 13.29,71.29 8.77,71.78 4.24,72.27 -0.79,71.94 -5.83,71.61 -10.22,69.17 -14.61,66.73 -16.67,61.54 -18.74,56.35 -17.46,46.49 -16.18,36.63 -8.99,18.00 -1.81,-0.63 -1.70,-0.84 -1.60,-1.05 -1.45,-1.22 -1.30,-1.40 -1.12,-1.54 -0.93,-1.67 -0.71,-1.76 -0.50,-1.85 -0.27,-1.88 -0.04,-1.91 0.18,-1.89 0.41,-1.87 0.63,-1.79 0.85,-1.72 1.04,-1.59 1.23,-1.46 1.39,-1.29 1.55,-1.12 1.66,-0.92 1.77,-0.72 1.83,-0.50 1.89,-0.27 1.90,-0.04 1.91,0.18 1.86,0.41 1.81,0.63 1.81,0.63 L 1.81,0.63 Z"/></g><g transform="translate(57 174) rotate(0 12 18.25)" stroke="none"><path fill="#1e1e1e" d="M 1.18,-1.83 Q 1.18,-1.83 3.74,-0.43 6.30,0.96 9.30,2.54 12.31,4.11 15.38,5.79 18.45,7.47 20.89,9.81 23.32,12.15 23.47,15.77 23.62,19.40 20.96,23.11 18.31,26.83 14.43,29.58 10.56,32.32 6.90,34.39 3.24,36.46 3.05,36.56 2.87,36.65 2.66,36.69 2.45,36.72 2.24,36.68 2.03,36.65 1.84,36.54 1.65,36.44 1.51,36.29 1.36,36.13 1.28,35.94 1.19,35.74 1.17,35.53 1.15,35.32 1.19,35.11 1.24,34.91 1.35,34.73 1.47,34.55 1.63,34.41 1.79,34.27 1.99,34.20 2.19,34.12 2.40,34.11 2.61,34.10 2.82,34.16 3.02,34.22 3.20,34.34 3.37,34.46 3.50,34.63 3.62,34.80 3.69,35.00 3.76,35.21 3.75,35.42 3.75,35.63 3.68,35.83 3.61,36.03 3.48,36.20 3.35,36.37 3.17,36.49 3.00,36.60 2.79,36.66 2.59,36.71 2.37,36.70 2.16,36.68 1.97,36.60 1.77,36.52 1.61,36.38 1.45,36.25 1.34,36.06 1.23,35.88 1.19,35.67 1.15,35.46 1.17,35.25 1.20,35.04 1.29,34.85 1.38,34.66 1.53,34.50 1.67,34.35 1.67,34.35 1.67,34.35 4.65,31.48 7.62,28.60 10.65,25.89 13.68,23.18 15.75,20.82 17.83,18.46 18.29,16.58 18.75,14.70 17.18,13.57 15.60,12.43 12.63,10.68 9.66,8.92 6.56,7.14 3.46,5.35 1.14,3.59 -1.18,1.83 -1.39,1.66 -1.59,1.49 -1.74,1.28 -1.90,1.07 -2.00,0.83 -2.10,0.58 -2.14,0.32 -2.18,0.06 -2.16,-0.19 -2.13,-0.45 -2.05,-0.70 -1.96,-0.95 -1.82,-1.17 -1.67,-1.40 -1.48,-1.58 -1.29,-1.76 -1.06,-1.89 -0.83,-2.02 -0.58,-2.09 -0.32,-2.16 -0.06,-2.17 0.19,-2.17 0.45,-2.12 0.71,-2.06 0.95,-1.95 1.18,-1.83 1.18,-1.83 L 1.18,-1.83 Z"/></g><g transform="translate(112 181) rotate(0 -13.75 16.5)" stroke="none"><path fill="#1e1e1e" d="M -0.26,1.93 Q -0.26,1.93 -3.44,2.04 -6.62,2.15 -9.35,3.12 -12.07,4.10 -13.52,5.36 -14.97,6.62 -15.55,8.01 -16.13,9.39 -15.99,10.94 -15.85,12.50 -14.85,14.27 -13.85,16.05 -12.13,18.05 -10.41,20.04 -8.21,22.41 -6.02,24.77 -4.77,26.57 -3.51,28.37 -3.90,31.64 -4.30,34.91 -6.20,35.73 -8.10,36.54 -11.15,36.93 -14.21,37.31 -17.41,36.97 -20.61,36.63 -22.70,36.00 -24.79,35.37 -26.19,33.68 -27.59,31.99 -27.75,31.85 -27.91,31.71 -28.01,31.52 -28.12,31.34 -28.16,31.13 -28.20,30.92 -28.17,30.71 -28.15,30.50 -28.05,30.31 -27.96,30.12 -27.81,29.97 -27.66,29.82 -27.47,29.72 -27.28,29.62 -27.07,29.59 -26.86,29.56 -26.65,29.60 -26.44,29.64 -26.26,29.75 -26.07,29.85 -25.93,30.01 -25.79,30.16 -25.70,30.36 -25.62,30.55 -25.60,30.76 -25.58,30.98 -25.63,31.18 -25.68,31.39 -25.79,31.57 -25.91,31.75 -26.07,31.88 -26.24,32.02 -26.43,32.09 -26.63,32.17 -26.85,32.17 -27.06,32.18 -27.26,32.12 -27.46,32.06 -27.64,31.93 -27.81,31.81 -27.94,31.64 -28.06,31.47 -28.13,31.27 -28.19,31.06 -28.18,30.85 -28.18,30.64 -28.11,30.44 -28.04,30.24 -27.90,30.07 -27.77,29.91 -27.59,29.79 -27.41,29.67 -27.21,29.62 -27.00,29.57 -26.79,29.58 -26.58,29.60 -26.38,29.68 -26.19,29.77 -26.19,29.77 -26.19,29.77 -24.84,29.81 -23.48,29.85 -21.71,30.06 -19.93,30.26 -17.42,30.53 -14.90,30.80 -12.62,30.59 -10.35,30.38 -8.50,29.80 -6.65,29.21 -7.70,30.55 -8.74,31.88 -9.69,30.47 -10.64,29.06 -12.96,26.58 -15.28,24.10 -17.41,21.47 -19.55,18.84 -20.85,15.81 -22.16,12.79 -22.04,9.80 -21.92,6.81 -20.51,4.28 -19.10,1.75 -16.55,-0.10 -14.00,-1.95 -10.01,-2.91 -6.02,-3.87 -2.87,-2.90 0.26,-1.93 0.49,-1.87 0.71,-1.81 0.92,-1.69 1.13,-1.58 1.30,-1.42 1.47,-1.27 1.60,-1.07 1.73,-0.87 1.81,-0.65 1.89,-0.43 1.92,-0.20 1.94,0.02 1.91,0.26 1.88,0.49 1.79,0.71 1.71,0.93 1.57,1.12 1.43,1.31 1.26,1.46 1.08,1.61 0.87,1.72 0.66,1.83 0.43,1.88 0.20,1.93 -0.02,1.93 -0.26,1.93 -0.26,1.93 L -0.26,1.93 Z"/></g><g transform="translate(132 193.5) rotate(0 -8 7.25)" stroke="none"><path fill="#1e1e1e" d="M -1.78,-0.17 Q -1.78,-0.17 -1.94,-1.04 -2.11,-1.90 -2.87,-1.01 -3.63,-0.11 -5.94,1.84 -8.26,3.81 -9.92,5.91 -11.58,8.01 -12.19,9.55 -12.79,11.09 -11.24,9.60 -9.69,8.12 -8.24,6.11 -6.79,4.10 -5.88,2.54 -4.98,0.98 -4.56,0.13 -4.14,-0.72 -3.93,-1.00 -3.71,-1.28 -3.44,-1.50 -3.16,-1.72 -2.84,-1.87 -2.52,-2.02 -2.17,-2.09 -1.82,-2.15 -1.47,-2.14 -1.12,-2.12 -0.78,-2.02 -0.44,-1.92 -0.14,-1.74 0.16,-1.56 0.41,-1.31 0.66,-1.06 0.85,-0.76 1.03,-0.46 1.14,-0.12 1.25,0.20 1.28,0.56 1.30,0.91 1.24,1.26 1.18,1.61 1.04,1.93 0.90,2.25 0.98,4.10 1.06,5.95 0.63,8.40 0.20,10.86 -0.23,13.00 -0.66,15.13 -1.22,16.81 -1.78,18.49 -1.79,18.71 -1.81,18.92 -1.88,19.12 -1.96,19.31 -2.10,19.48 -2.24,19.64 -2.42,19.75 -2.60,19.86 -2.81,19.90 -3.02,19.95 -3.23,19.92 -3.44,19.90 -3.63,19.81 -3.83,19.72 -3.98,19.57 -4.13,19.43 -4.23,19.24 -4.33,19.05 -4.37,18.84 -4.40,18.63 -4.37,18.42 -4.33,18.21 -4.23,18.03 -4.13,17.84 -3.98,17.69 -3.82,17.55 -3.63,17.46 -3.44,17.37 -3.23,17.35 -3.01,17.32 -2.81,17.37 -2.60,17.42 -2.42,17.53 -2.24,17.63 -2.10,17.80 -1.96,17.96 -1.88,18.16 -1.80,18.35 -1.79,18.57 -1.78,18.78 -1.84,18.98 -1.90,19.19 -2.02,19.36 -2.14,19.54 -2.30,19.67 -2.47,19.80 -2.68,19.86 -2.88,19.93 -3.09,19.93 -3.30,19.93 -3.50,19.86 -3.70,19.79 -3.87,19.67 -4.04,19.54 -4.16,19.36 -4.28,19.18 -4.34,18.98 -4.39,18.77 -4.39,18.77 -4.39,18.78 -5.37,16.55 -6.35,14.33 -6.13,12.06 -5.91,9.78 -5.46,7.26 -5.01,4.74 -4.60,3.65 -4.18,2.57 -4.16,0.92 -4.14,-0.72 -3.93,-1.00 -3.71,-1.28 -3.44,-1.50 -3.16,-1.72 -2.84,-1.87 -2.52,-2.02 -2.17,-2.09 -1.82,-2.15 -1.47,-2.14 -1.12,-2.12 -0.78,-2.02 -0.44,-1.92 -0.14,-1.74 0.16,-1.56 0.41,-1.31 0.66,-1.06 0.85,-0.76 1.03,-0.46 1.14,-0.12 1.25,0.20 1.28,0.56 1.30,0.91 1.24,1.26 1.18,1.61 1.04,1.93 0.90,2.25 0.47,3.11 0.05,3.96 -1.02,5.75 -2.09,7.55 -3.95,10.04 -5.81,12.54 -8.68,14.77 -11.55,17.00 -13.55,16.90 -15.56,16.79 -17.07,15.09 -18.58,13.39 -18.68,11.17 -18.78,8.94 -17.74,6.45 -16.70,3.96 -14.50,1.31 -12.30,-1.33 -8.92,-3.79 -5.53,-6.24 -3.02,-6.53 -0.50,-6.81 1.09,-5.33 2.69,-3.84 2.23,-1.83 1.78,0.17 1.73,0.38 1.68,0.59 1.59,0.79 1.49,0.98 1.35,1.14 1.21,1.31 1.04,1.44 0.86,1.56 0.66,1.64 0.46,1.72 0.25,1.75 0.03,1.78 -0.17,1.76 -0.39,1.74 -0.59,1.67 -0.79,1.60 -0.97,1.48 -1.15,1.36 -1.30,1.20 -1.45,1.04 -1.55,0.85 -1.65,0.66 -1.71,0.46 -1.77,0.25 -1.77,0.03 -1.78,-0.17 -1.78,-0.17 L -1.78,-0.17 Z"/></g><g transform="translate(140 188.5) rotate(0 5 11.75)" stroke="none"><path fill="#1e1e1e" d="M 2.24,0.08 Q 2.24,0.08 2.47,3.69 2.70,7.30 2.73,10.52 2.77,13.75 2.79,16.27 2.80,18.79 3.24,20.58 3.68,22.38 3.63,22.77 3.58,23.17 3.43,23.54 3.29,23.92 3.06,24.24 2.83,24.57 2.53,24.83 2.23,25.09 1.87,25.28 1.51,25.46 1.13,25.55 0.74,25.65 0.34,25.64 -0.05,25.64 -0.44,25.54 -0.83,25.44 -1.18,25.25 -1.53,25.06 -1.83,24.80 -2.13,24.53 -2.35,24.20 -2.57,23.87 -2.71,23.49 -2.85,23.12 -2.90,22.72 -2.94,22.32 -1.62,20.25 -0.30,18.17 0.82,15.72 1.95,13.26 2.86,11.39 3.77,9.52 4.83,7.92 5.89,6.33 7.44,5.13 8.99,3.93 9.13,3.77 9.27,3.61 9.45,3.50 9.64,3.40 9.84,3.35 10.05,3.31 10.26,3.34 10.47,3.37 10.67,3.46 10.86,3.55 11.01,3.70 11.16,3.85 11.26,4.04 11.35,4.23 11.38,4.44 11.41,4.65 11.37,4.86 11.34,5.07 11.23,5.25 11.13,5.44 10.97,5.58 10.82,5.73 10.62,5.81 10.43,5.90 10.22,5.92 10.00,5.93 9.80,5.89 9.59,5.84 9.41,5.72 9.23,5.61 9.10,5.45 8.96,5.28 8.89,5.08 8.81,4.88 8.80,4.67 8.80,4.46 8.86,4.25 8.92,4.05 9.04,3.88 9.16,3.70 9.33,3.58 9.51,3.45 9.71,3.39 9.91,3.33 10.12,3.33 10.34,3.33 10.54,3.41 10.74,3.48 10.90,3.61 11.07,3.74 11.19,3.92 11.30,4.10 11.35,4.30 11.41,4.51 11.39,4.72 11.38,4.93 11.29,5.13 11.21,5.32 11.21,5.32 11.21,5.32 10.97,6.98 10.73,8.64 10.17,10.41 9.62,12.18 8.78,14.17 7.93,16.17 5.81,19.27 3.68,22.38 3.63,22.77 3.58,23.17 3.43,23.54 3.29,23.92 3.06,24.24 2.83,24.57 2.53,24.83 2.23,25.09 1.87,25.28 1.52,25.46 1.13,25.55 0.74,25.65 0.34,25.64 -0.05,25.64 -0.44,25.54 -0.83,25.44 -1.18,25.25 -1.53,25.06 -1.83,24.80 -2.13,24.53 -2.35,24.20 -2.57,23.87 -2.71,23.49 -2.85,23.12 -2.90,22.72 -2.94,22.32 -3.22,22.23 -3.49,22.13 -3.61,20.42 -3.73,18.72 -3.66,16.17 -3.59,13.63 -3.43,10.35 -3.27,7.06 -2.76,3.48 -2.24,-0.08 -2.19,-0.35 -2.15,-0.62 -2.04,-0.87 -1.94,-1.12 -1.78,-1.33 -1.61,-1.55 -1.40,-1.72 -1.19,-1.89 -0.95,-2.01 -0.71,-2.12 -0.44,-2.18 -0.18,-2.23 0.08,-2.22 0.35,-2.21 0.61,-2.13 0.87,-2.06 1.11,-1.92 1.34,-1.79 1.54,-1.60 1.73,-1.41 1.88,-1.19 2.02,-0.96 2.11,-0.70 2.19,-0.44 2.22,-0.17 2.24,0.08 2.24,0.08 L 2.24,0.08 Z"/></g><g transform="translate(157.5 201) rotate(0 5.75 -4.25)" stroke="none"><path fill="#1e1e1e" d="M -0.86,-1.57 Q -0.86,-1.57 1.83,-3.45 4.53,-5.33 6.74,-7.57 8.95,-9.82 9.89,-11.71 10.83,-13.60 7.99,-11.38 5.14,-9.15 3.72,-6.64 2.29,-4.14 1.56,-1.64 0.82,0.86 0.89,2.17 0.95,3.49 3.43,4.90 5.92,6.32 7.21,7.10 8.51,7.88 8.68,8.00 8.86,8.12 8.99,8.29 9.12,8.46 9.19,8.66 9.26,8.86 9.26,9.07 9.27,9.28 9.20,9.48 9.14,9.69 9.01,9.86 8.88,10.03 8.71,10.15 8.53,10.27 8.33,10.33 8.12,10.39 7.91,10.38 7.70,10.37 7.50,10.29 7.30,10.21 7.14,10.08 6.98,9.94 6.86,9.76 6.75,9.58 6.71,9.37 6.66,9.17 6.68,8.95 6.70,8.74 6.79,8.55 6.87,8.36 7.02,8.20 7.16,8.04 7.35,7.94 7.54,7.84 7.75,7.81 7.96,7.77 8.17,7.80 8.38,7.83 8.56,7.93 8.75,8.03 8.90,8.18 9.05,8.33 9.14,8.53 9.23,8.72 9.26,8.93 9.28,9.14 9.24,9.35 9.19,9.56 9.09,9.74 8.98,9.92 8.82,10.06 8.66,10.20 8.46,10.28 8.26,10.36 8.05,10.38 7.84,10.39 7.63,10.33 7.43,10.28 7.43,10.28 7.43,10.28 5.98,9.83 4.54,9.38 0.57,7.89 -3.39,6.39 -4.30,2.90 -5.21,-0.58 -4.17,-3.98 -3.14,-7.37 -1.08,-10.63 0.98,-13.90 3.85,-16.18 6.72,-18.47 9.48,-19.10 12.23,-19.73 14.23,-18.13 16.22,-16.53 15.90,-13.75 15.57,-10.97 14.09,-8.53 12.60,-6.09 9.78,-3.54 6.96,-0.99 3.91,0.29 0.86,1.57 0.66,1.65 0.46,1.73 0.25,1.76 0.03,1.80 -0.18,1.77 -0.39,1.75 -0.60,1.68 -0.80,1.61 -0.98,1.49 -1.16,1.37 -1.31,1.21 -1.46,1.05 -1.56,0.86 -1.67,0.67 -1.72,0.46 -1.78,0.25 -1.78,0.03 -1.79,-0.18 -1.74,-0.39 -1.69,-0.60 -1.59,-0.79 -1.50,-0.99 -1.36,-1.15 -1.21,-1.32 -1.04,-1.45 -0.86,-1.57 -0.86,-1.57 L -0.86,-1.57 Z"/></g><g transform="translate(201.5 185) rotate(0 -10.25 -5)" stroke="none"><path fill="#1e1e1e" d="M -1.45,1.45 Q -1.45,1.45 -3.30,0.22 -5.15,-1.01 -7.86,-0.02 -10.57,0.96 -12.20,2.98 -13.83,4.99 -14.74,8.07 -15.65,11.15 -15.88,13.30 -16.12,15.45 -15.15,16.26 -14.18,17.06 -13.16,16.14 -12.15,15.22 -10.74,13.27 -9.33,11.32 -8.08,6.73 -6.82,2.13 -6.25,-3.20 -5.67,-8.55 -5.44,-13.72 -5.20,-18.88 -5.15,-22.52 -5.10,-26.16 -5.13,-28.42 -5.16,-30.67 -5.36,-31.22 -5.57,-31.77 -5.51,-32.16 -5.46,-32.55 -5.31,-32.91 -5.16,-33.28 -4.93,-33.59 -4.70,-33.91 -4.40,-34.17 -4.11,-34.42 -3.75,-34.59 -3.40,-34.77 -3.02,-34.86 -2.64,-34.94 -2.24,-34.93 -1.85,-34.93 -1.47,-34.82 -1.09,-34.72 -0.75,-34.53 -0.41,-34.34 -0.12,-34.08 0.16,-33.81 0.38,-33.48 0.59,-33.15 0.72,-32.78 0.85,-32.41 0.89,-32.02 0.93,-31.63 0.76,-29.83 0.60,-28.02 0.26,-24.47 -0.07,-20.93 -0.47,-14.72 -0.86,-8.51 -1.02,-3.03 -1.18,2.43 -1.26,6.77 -1.33,11.11 -1.42,14.37 -1.50,17.64 -1.80,19.80 -2.10,21.97 -2.01,22.16 -1.93,22.36 -1.91,22.57 -1.89,22.78 -1.94,22.99 -1.98,23.19 -2.10,23.37 -2.21,23.55 -2.37,23.69 -2.54,23.82 -2.74,23.90 -2.94,23.97 -3.15,23.98 -3.36,23.99 -3.56,23.93 -3.77,23.87 -3.94,23.75 -4.12,23.63 -4.24,23.45 -4.37,23.28 -4.43,23.08 -4.50,22.88 -4.49,22.67 -4.49,22.45 -4.42,22.25 -4.35,22.05 -4.22,21.89 -4.08,21.72 -3.91,21.60 -3.73,21.49 -3.52,21.43 -3.32,21.38 -3.10,21.39 -2.89,21.41 -2.70,21.49 -2.50,21.57 -2.34,21.71 -2.18,21.85 -2.08,22.04 -1.97,22.22 -1.93,22.43 -1.88,22.64 -1.91,22.85 -1.94,23.06 -2.03,23.25 -2.12,23.44 -2.27,23.59 -2.42,23.75 -2.61,23.84 -2.80,23.94 -3.01,23.97 -3.22,24.00 -3.43,23.96 -3.64,23.92 -3.82,23.82 -4.01,23.72 -4.15,23.56 -4.30,23.41 -4.30,23.41 -4.30,23.41 -6.34,20.51 -8.39,17.61 -8.40,14.29 -8.42,10.98 -8.34,6.58 -8.25,2.19 -8.03,-3.40 -7.81,-9.00 -7.32,-15.31 -6.83,-21.63 -6.42,-25.22 -6.02,-28.82 -5.79,-30.29 -5.57,-31.77 -5.51,-32.16 -5.46,-32.55 -5.31,-32.91 -5.16,-33.28 -4.93,-33.59 -4.70,-33.91 -4.40,-34.17 -4.11,-34.42 -3.75,-34.59 -3.40,-34.77 -3.02,-34.86 -2.64,-34.94 -2.24,-34.93 -1.85,-34.93 -1.47,-34.82 -1.09,-34.72 -0.75,-34.53 -0.41,-34.34 -0.12,-34.08 0.16,-33.81 0.38,-33.48 0.59,-33.15 0.72,-32.78 0.85,-32.41 0.89,-32.02 0.93,-31.63 0.98,-31.11 1.02,-30.59 0.89,-28.28 0.77,-25.98 0.59,-22.29 0.41,-18.60 0.12,-13.27 -0.17,-7.94 -0.85,-2.13 -1.52,3.68 -3.21,9.11 -4.90,14.54 -7.04,17.23 -9.18,19.93 -11.77,21.16 -14.36,22.38 -16.95,21.44 -19.55,20.51 -20.88,18.05 -22.22,15.60 -22.02,12.37 -21.82,9.15 -20.34,5.00 -18.86,0.84 -16.24,-1.97 -13.61,-4.79 -10.04,-6.11 -6.48,-7.43 -3.82,-6.37 -1.17,-5.31 0.14,-3.38 1.45,-1.45 1.60,-1.26 1.76,-1.06 1.86,-0.83 1.96,-0.61 2.00,-0.36 2.05,-0.12 2.03,0.12 2.02,0.37 1.95,0.60 1.87,0.84 1.74,1.05 1.62,1.26 1.44,1.44 1.26,1.62 1.05,1.74 0.84,1.87 0.60,1.95 0.37,2.02 0.12,2.03 -0.12,2.05 -0.36,2.00 -0.61,1.96 -0.83,1.86 -1.06,1.76 -1.26,1.60 -1.45,1.45 -1.45,1.45 L -1.45,1.45 Z"/></g><g transform="translate(225.5 139.5) rotate(0 -2.5 15.25)" stroke="none"><path fill="#1e1e1e" d="M 2.68,0.53 Q 2.68,0.53 2.45,2.73 2.21,4.92 1.54,8.73 0.87,12.54 0.34,16.04 -0.18,19.54 -1.79,24.09 -3.39,28.64 -3.46,28.84 -3.52,29.04 -3.65,29.21 -3.77,29.38 -3.95,29.51 -4.12,29.63 -4.32,29.69 -4.53,29.75 -4.74,29.74 -4.95,29.73 -5.15,29.65 -5.35,29.58 -5.51,29.44 -5.68,29.31 -5.79,29.13 -5.90,28.95 -5.95,28.74 -6.00,28.53 -5.98,28.32 -5.96,28.11 -5.87,27.92 -5.79,27.72 -5.64,27.57 -5.50,27.41 -5.31,27.31 -5.13,27.21 -4.92,27.17 -4.71,27.13 -4.50,27.16 -4.29,27.19 -4.10,27.29 -3.91,27.39 -3.76,27.54 -3.61,27.69 -3.52,27.88 -3.43,28.07 -3.40,28.28 -3.38,28.50 -3.42,28.70 -3.46,28.91 -3.57,29.10 -3.68,29.28 -3.84,29.42 -4.00,29.56 -4.19,29.64 -4.39,29.72 -4.60,29.74 -4.81,29.75 -5.02,29.70 -5.22,29.64 -5.40,29.53 -5.58,29.41 -5.71,29.24 -5.84,29.08 -5.91,28.88 -5.98,28.67 -5.99,28.46 -5.99,28.25 -5.99,28.25 -5.99,28.25 -6.21,23.49 -6.43,18.74 -6.03,14.99 -5.63,11.24 -4.79,7.47 -3.94,3.69 -3.31,1.57 -2.68,-0.53 -2.58,-0.85 -2.47,-1.16 -2.30,-1.44 -2.12,-1.72 -1.89,-1.95 -1.65,-2.18 -1.36,-2.34 -1.08,-2.51 -0.76,-2.60 -0.44,-2.70 -0.12,-2.71 0.20,-2.72 0.53,-2.66 0.85,-2.59 1.15,-2.45 1.45,-2.31 1.71,-2.11 1.96,-1.90 2.16,-1.64 2.36,-1.37 2.49,-1.07 2.62,-0.77 2.68,-0.44 2.73,-0.12 2.70,0.20 2.68,0.53 2.68,0.53 L 2.68,0.53 Z"/></g><g transform="translate(219 201.5) rotate(0 0.75 -1.75)" stroke="none"><path fill="#1e1e1e" d="M 2.49,-0.77 Q 2.49,-0.77 2.53,-0.15 2.57,0.47 2.31,1.04 2.05,1.61 1.56,1.99 1.07,2.38 0.45,2.49 -0.15,2.61 -0.75,2.42 -1.35,2.23 -1.79,1.79 -2.23,1.35 -2.42,0.75 -2.61,0.15 -2.49,-0.45 -2.38,-1.07 -1.99,-1.56 -1.61,-2.05 -1.04,-2.31 -0.47,-2.57 0.15,-2.53 0.77,-2.49 1.31,-2.17 1.84,-1.84 2.17,-1.31 L 2.49,-0.77 Z"/></g><g transform="translate(72 234.5) rotate(0 76 -8.25)" stroke="none"><path fill="#1e1e1e" d="M -0.65,-2.06 Q -0.65,-2.06 4.68,-4.20 10.01,-6.33 17.97,-8.60 25.93,-10.87 36.32,-12.85 46.72,-14.84 63.61,-16.25 80.50,-17.67 95.59,-18.09 110.68,-18.50 122.57,-18.18 134.45,-17.86 139.49,-17.75 144.53,-17.65 144.74,-17.62 144.95,-17.59 145.14,-17.49 145.33,-17.40 145.48,-17.25 145.63,-17.10 145.72,-16.91 145.81,-16.71 145.84,-16.50 145.87,-16.29 145.83,-16.09 145.78,-15.88 145.68,-15.69 145.57,-15.51 145.41,-15.37 145.25,-15.23 145.06,-15.14 144.86,-15.06 144.65,-15.04 144.44,-15.03 144.23,-15.08 144.03,-15.13 143.85,-15.25 143.67,-15.36 143.54,-15.53 143.41,-15.70 143.33,-15.90 143.26,-16.10 143.26,-16.31 143.25,-16.52 143.32,-16.72 143.38,-16.93 143.51,-17.10 143.63,-17.27 143.80,-17.39 143.98,-17.52 144.18,-17.58 144.38,-17.64 144.60,-17.63 144.81,-17.63 145.01,-17.55 145.21,-17.48 145.37,-17.34 145.54,-17.21 145.65,-17.03 145.76,-16.85 145.81,-16.64 145.86,-16.44 145.84,-16.22 145.83,-16.01 145.74,-15.82 145.66,-15.62 145.51,-15.47 145.37,-15.31 145.18,-15.20 145.00,-15.10 144.79,-15.06 144.58,-15.02 144.58,-15.02 144.58,-15.02 139.55,-14.71 134.52,-14.39 122.72,-13.56 110.91,-12.74 95.98,-11.97 81.04,-11.19 64.48,-9.82 47.91,-8.45 37.77,-6.58 27.62,-4.70 19.72,-2.63 11.83,-0.56 6.24,0.75 0.65,2.06 0.39,2.11 0.13,2.16 -0.12,2.15 -0.38,2.13 -0.63,2.05 -0.88,1.98 -1.10,1.84 -1.33,1.71 -1.51,1.52 -1.70,1.34 -1.83,1.12 -1.97,0.89 -2.05,0.64 -2.13,0.39 -2.15,0.13 -2.16,-0.12 -2.12,-0.38 -2.07,-0.63 -1.96,-0.87 -1.86,-1.11 -1.70,-1.32 -1.54,-1.52 -1.33,-1.69 -1.12,-1.85 -0.89,-1.96 -0.65,-2.06 -0.65,-2.06 L -0.65,-2.06 Z"/></g></svg>