<svg version="1.1" xmlns="http://www.w3.org/2000/svg" viewBox="0 0 282.5 217.5" width="282.5" height="217.5">
  <!-- svg-source:excalidraw -->
  
  <defs>
    <style class="style-fonts">
      @font-face {
        font-family: "Virgil";
        src: url("https://excalidraw.com/Virgil.woff2");
      }
      @font-face {
        font-family: "Cascadia";
        src: url("https://excalidraw.com/Cascadia.woff2");
      }
    </style>
    
  </defs>
  <rect x="0" y="0" width="282.5" height="217.5" fill="#ffffff"/><g transform="translate(105 175.5) rotate(0 40.25 -43)" stroke="none"><path fill="#1e1e1e" d="M -1.79,0.77 Q -1.79,0.77 -3.56,-2.38 -5.32,-5.54 -6.77,-9.30 -8.23,-13.05 -9.31,-16.24 -10.40,-19.42 -11.19,-22.59 -11.98,-25.76 -12.48,-29.06 -12.98,-32.36 -13.35,-35.79 -13.73,-39.21 -13.73,-43.82 -13.74,-48.42 -13.30,-52.65 -12.86,-56.87 -11.48,-61.87 -10.09,-66.87 -9.24,-69.89 -8.38,-72.92 -6.51,-77.28 -4.63,-81.64 -2.50,-85.43 -0.36,-89.22 2.03,-92.63 4.43,-96.03 7.09,-99.13 9.75,-102.22 12.33,-104.97 14.91,-107.73 18.99,-110.54 23.06,-113.35 26.92,-115.15 30.78,-116.95 34.03,-118.15 37.28,-119.34 40.47,-119.89 43.67,-120.45 47.59,-120.54 51.50,-120.62 55.02,-120.20 58.54,-119.78 61.85,-118.67 65.15,-117.56 68.20,-116.03 71.25,-114.50 74.69,-112.03 78.13,-109.56 80.79,-107.16 83.44,-104.76 85.52,-102.35 87.60,-99.94 89.01,-97.60 90.43,-95.26 91.39,-92.82 92.35,-90.37 93.08,-86.89 93.82,-83.41 94.12,-80.14 94.43,-76.86 94.41,-73.52 94.40,-70.17 94.09,-66.81 93.79,-63.44 92.92,-59.29 92.05,-55.14 91.11,-51.76 90.16,-48.38 89.01,-45.39 87.85,-42.40 86.81,-39.76 85.78,-37.11 84.57,-34.58 83.37,-32.04 81.66,-29.15 79.96,-26.25 78.48,-24.11 77.01,-21.96 75.65,-20.16 74.30,-18.36 72.80,-16.66 71.30,-14.95 69.73,-13.44 68.16,-11.92 65.59,-10.13 63.03,-8.34 60.96,-7.04 58.90,-5.74 56.92,-4.70 54.93,-3.66 53.07,-2.78 51.21,-1.90 49.33,-0.98 47.44,-0.05 45.98,0.74 44.52,1.54 43.06,2.23 41.59,2.92 40.28,3.41 38.97,3.89 37.81,4.24 36.65,4.60 35.37,4.91 34.09,5.22 32.97,5.37 31.84,5.53 30.05,5.61 28.25,5.70 27.04,5.70 25.83,5.70 25.87,7.41 25.91,9.12 25.67,11.22 25.43,13.32 25.34,15.48 25.25,17.64 25.07,18.88 24.89,20.11 24.66,21.20 24.43,22.29 23.72,24.40 23.00,26.52 22.40,27.90 21.79,29.28 21.18,30.24 20.58,31.21 19.68,32.13 18.78,33.06 17.10,34.02 15.43,34.98 13.59,35.26 11.75,35.53 10.08,35.59 8.41,35.65 6.68,35.52 4.95,35.40 3.46,35.19 1.97,34.98 0.59,34.51 -0.79,34.04 -1.93,33.44 -3.07,32.83 -4.30,31.42 -5.53,30.00 -6.13,29.12 -6.73,28.23 -7.22,26.76 -7.71,25.29 -8.10,22.90 -8.50,20.50 -8.55,18.75 -8.60,17.00 -8.62,15.57 -8.64,14.13 -8.65,12.80 -8.65,11.47 -8.51,9.59 -8.36,7.72 -8.15,6.05 -7.94,4.38 -7.70,2.92 -7.46,1.46 -7.02,-0.06 -6.59,-1.59 -6.15,-3.25 -5.71,-4.91 -5.18,-6.37 -4.64,-7.84 -2.94,-8.72 -1.24,-9.60 -1.17,-9.75 -1.10,-9.89 -1.00,-10.01 -0.89,-10.13 -0.76,-10.22 -0.63,-10.31 -0.49,-10.36 -0.34,-10.42 -0.18,-10.44 -0.02,-10.46 0.12,-10.45 0.28,-10.43 0.43,-10.37 0.58,-10.32 0.71,-10.23 0.84,-10.14 0.95,-10.02 1.05,-9.91 1.13,-9.77 1.20,-9.63 1.24,-9.47 1.28,-9.32 1.28,-9.16 1.28,-9.00 1.25,-8.85 1.21,-8.70 1.24,-8.78 1.26,-8.87 1.18,-8.67 1.10,-8.47 0.97,-8.31 0.83,-8.15 0.65,-8.04 0.46,-7.93 0.26,-7.88 0.05,-7.84 -0.15,-7.86 -0.36,-7.89 -0.56,-7.97 -0.75,-8.06 -0.90,-8.21 -1.06,-8.36 -1.16,-8.54 -1.26,-8.73 -1.29,-8.94 -1.33,-9.15 -1.29,-9.36 -1.26,-9.57 -1.16,-9.76 -1.06,-9.95 -0.90,-10.09 -0.75,-10.24 -0.55,-10.33 -0.36,-10.42 -0.15,-10.44 0.05,-10.46 0.26,-10.42 0.47,-10.37 0.65,-10.26 0.83,-10.15 0.97,-9.99 1.10,-9.83 1.18,-9.63 1.26,-9.43 1.27,-9.22 1.28,-9.01 1.23,-8.80 1.17,-8.60 1.05,-8.42 0.93,-8.25 0.76,-8.12 0.59,-7.99 0.39,-7.92 0.19,-7.85 -0.01,-7.85 -0.23,-7.85 -0.43,-7.92 -0.63,-7.99 -0.80,-8.12 -0.97,-8.25 -1.09,-8.42 -1.20,-8.60 -1.26,-8.80 -1.32,-9.01 -1.28,-9.31 -1.24,-9.60 -1.17,-9.75 -1.10,-9.89 -1.00,-10.01 -0.89,-10.12 -0.76,-10.22 -0.63,-10.31 -0.49,-10.36 -0.34,-10.42 -0.18,-10.44 -0.02,-10.46 0.12,-10.45 0.28,-10.43 0.43,-10.37 0.58,-10.32 0.71,-10.23 0.84,-10.14 0.95,-10.02 1.05,-9.91 1.13,-9.77 1.20,-9.63 1.24,-9.47 1.28,-9.32 1.28,-9.16 1.28,-9.00 1.25,-8.85 1.21,-8.70 1.72,-7.00 2.23,-5.30 1.80,-4.17 1.37,-3.03 0.91,-1.28 0.45,0.47 0.11,1.56 -0.22,2.66 -0.44,3.98 -0.66,5.31 -0.85,6.82 -1.04,8.32 -1.18,9.87 -1.31,11.42 -1.30,12.73 -1.30,14.03 -1.28,15.42 -1.26,16.80 -1.16,19.16 -1.06,21.52 -0.83,22.85 -0.59,24.17 0.01,25.32 0.62,26.47 1.84,27.03 3.06,27.59 4.30,27.77 5.54,27.95 6.85,28.07 8.16,28.18 9.60,28.14 11.03,28.09 12.43,27.79 13.83,27.49 14.54,26.62 15.26,25.75 15.69,24.72 16.13,23.69 16.66,22.22 17.18,20.75 17.51,19.10 17.84,17.45 17.88,16.04 17.92,14.64 18.01,13.41 18.11,12.18 18.27,11.13 18.44,10.07 18.81,7.81 19.17,5.55 19.71,4.09 20.24,2.62 20.90,1.61 21.55,0.60 22.47,-0.21 23.39,-1.03 24.98,-1.39 26.58,-1.75 28.03,-1.78 29.49,-1.80 30.93,-1.92 32.36,-2.04 33.43,-2.29 34.50,-2.54 36.47,-3.18 38.45,-3.81 39.72,-4.40 41.00,-4.98 42.60,-5.84 44.20,-6.70 46.15,-7.64 48.09,-8.57 49.82,-9.38 51.55,-10.18 53.28,-11.07 55.01,-11.96 56.96,-13.17 58.91,-14.38 61.04,-15.79 63.17,-17.20 64.54,-18.48 65.90,-19.76 67.25,-21.24 68.60,-22.73 69.89,-24.38 71.17,-26.03 72.53,-27.95 73.89,-29.88 75.48,-32.48 77.07,-35.09 78.19,-37.38 79.32,-39.68 80.38,-42.31 81.44,-44.94 82.51,-47.60 83.59,-50.26 84.51,-53.41 85.44,-56.55 86.26,-60.31 87.09,-64.07 87.38,-67.15 87.68,-70.24 87.72,-73.26 87.76,-76.29 87.53,-79.21 87.29,-82.13 86.76,-85.11 86.22,-88.10 85.54,-90.04 84.86,-91.98 83.76,-93.87 82.67,-95.75 80.89,-97.87 79.10,-99.99 76.72,-102.17 74.33,-104.34 71.33,-106.55 68.32,-108.76 65.68,-110.12 63.03,-111.49 60.38,-112.44 57.73,-113.40 54.67,-113.79 51.61,-114.18 48.16,-114.14 44.72,-114.10 42.10,-113.69 39.48,-113.27 36.48,-112.18 33.48,-111.09 30.08,-109.54 26.68,-108.00 23.14,-105.64 19.61,-103.28 17.13,-100.63 14.66,-97.98 12.19,-95.14 9.72,-92.29 7.50,-89.15 5.27,-86.02 3.29,-82.54 1.31,-79.06 -0.41,-75.10 -2.14,-71.14 -2.99,-68.13 -3.84,-65.11 -5.12,-60.64 -6.41,-56.16 -6.83,-52.29 -7.25,-48.42 -7.27,-44.13 -7.28,-39.85 -6.98,-36.55 -6.69,-33.25 -6.30,-30.21 -5.91,-27.17 -5.28,-24.20 -4.65,-21.24 -3.74,-18.11 -2.83,-14.99 -1.62,-11.33 -0.42,-7.67 0.68,-4.22 1.79,-0.77 1.86,-0.55 1.92,-0.32 1.93,-0.09 1.94,0.14 1.90,0.37 1.85,0.60 1.75,0.81 1.65,1.03 1.51,1.21 1.36,1.39 1.17,1.54 0.98,1.68 0.77,1.77 0.55,1.87 0.32,1.91 0.09,1.95 -0.14,1.93 -0.37,1.91 -0.60,1.84 -0.82,1.77 -1.02,1.64 -1.22,1.52 -1.38,1.35 -1.55,1.18 -1.67,0.98 -1.79,0.77 -1.79,0.77 L -1.79,0.77 Z"/></g><g transform="translate(95 177.5) rotate(0 19.5 5.25)" stroke="none"><path fill="#1e1e1e" d="M 0.86,-1.37 Q 0.86,-1.37 3.98,-0.26 7.10,0.84 10.00,2.15 12.90,3.46 16.12,4.39 19.35,5.31 23.30,5.84 27.25,6.37 30.23,6.66 33.20,6.95 35.62,7.46 38.03,7.97 38.24,7.92 38.45,7.87 38.66,7.90 38.87,7.92 39.06,8.00 39.26,8.09 39.41,8.24 39.57,8.38 39.67,8.57 39.77,8.75 39.81,8.96 39.84,9.17 39.81,9.38 39.78,9.59 39.68,9.78 39.58,9.97 39.43,10.12 39.28,10.26 39.09,10.36 38.90,10.45 38.68,10.47 38.47,10.50 38.27,10.45 38.06,10.41 37.87,10.30 37.69,10.20 37.55,10.03 37.41,9.87 37.33,9.68 37.25,9.48 37.24,9.27 37.22,9.06 37.28,8.85 37.33,8.65 37.45,8.47 37.57,8.29 37.74,8.16 37.90,8.03 38.10,7.96 38.31,7.89 38.52,7.89 38.73,7.89 38.93,7.95 39.13,8.02 39.30,8.15 39.47,8.27 39.60,8.45 39.72,8.62 39.78,8.83 39.83,9.03 39.83,9.24 39.82,9.45 39.74,9.65 39.66,9.85 39.53,10.01 39.39,10.18 39.21,10.29 39.03,10.40 39.03,10.40 39.03,10.40 35.86,11.85 32.69,13.30 29.51,13.09 26.34,12.87 21.90,12.23 17.46,11.58 13.80,10.41 10.14,9.24 6.98,7.65 3.81,6.05 1.47,3.71 -0.86,1.37 -1.02,1.25 -1.17,1.12 -1.29,0.97 -1.41,0.81 -1.48,0.63 -1.56,0.45 -1.59,0.26 -1.62,0.06 -1.61,-0.12 -1.59,-0.32 -1.53,-0.51 -1.47,-0.69 -1.36,-0.86 -1.26,-1.02 -1.12,-1.16 -0.97,-1.30 -0.80,-1.39 -0.63,-1.49 -0.45,-1.55 -0.26,-1.60 -0.06,-1.61 0.13,-1.62 0.32,-1.58 0.51,-1.54 0.69,-1.46 0.86,-1.37 0.86,-1.37 L 0.86,-1.37 Z"/></g><g transform="translate(98 188.5) rotate(0 16.25 4)" stroke="none"><path fill="#1e1e1e" d="M 1.13,-1.36 Q 1.13,-1.36 3.22,-0.36 5.30,0.63 6.60,1.37 7.90,2.11 9.89,2.57 11.88,3.03 14.50,3.57 17.11,4.11 20.21,4.40 23.31,4.69 27.05,5.45 30.78,6.21 30.99,6.24 31.20,6.27 31.39,6.37 31.58,6.46 31.73,6.62 31.87,6.77 31.97,6.96 32.06,7.15 32.08,7.36 32.11,7.57 32.07,7.78 32.02,7.99 31.92,8.17 31.81,8.36 31.65,8.50 31.49,8.64 31.30,8.72 31.10,8.80 30.89,8.81 30.68,8.83 30.47,8.77 30.26,8.72 30.09,8.60 29.91,8.49 29.78,8.32 29.65,8.15 29.58,7.95 29.51,7.75 29.50,7.54 29.50,7.33 29.56,7.12 29.63,6.92 29.75,6.75 29.88,6.58 30.05,6.46 30.23,6.34 30.43,6.28 30.64,6.22 30.85,6.23 31.06,6.23 31.26,6.31 31.46,6.39 31.62,6.52 31.79,6.66 31.90,6.84 32.01,7.02 32.06,7.22 32.11,7.43 32.09,7.64 32.07,7.85 31.98,8.05 31.90,8.24 31.75,8.40 31.61,8.55 31.42,8.66 31.24,8.76 31.03,8.80 30.82,8.83 30.82,8.83 30.82,8.83 26.85,9.71 22.88,10.58 19.36,10.38 15.84,10.19 13.01,9.59 10.18,8.98 7.49,8.10 4.80,7.23 3.19,6.17 1.59,5.11 0.22,3.23 -1.13,1.36 -1.28,1.21 -1.43,1.05 -1.53,0.86 -1.64,0.68 -1.70,0.47 -1.75,0.26 -1.76,0.05 -1.77,-0.16 -1.72,-0.37 -1.68,-0.58 -1.58,-0.77 -1.49,-0.96 -1.35,-1.13 -1.21,-1.29 -1.04,-1.42 -0.87,-1.54 -0.67,-1.63 -0.47,-1.71 -0.26,-1.74 -0.05,-1.77 0.15,-1.75 0.37,-1.73 0.57,-1.66 0.77,-1.59 0.95,-1.48 1.13,-1.36 1.13,-1.36 L 1.13,-1.36 Z"/></g><g transform="translate(113.5 164.5) rotate(0 15.75 -32.5)" stroke="none"><path fill="#1e1e1e" d="M -1.13,-0.88 Q -1.13,-0.88 0.20,-3.09 1.53,-5.29 2.68,-7.23 3.83,-9.16 4.87,-11.35 5.92,-13.54 7.05,-17.11 8.18,-20.68 8.95,-24.03 9.72,-27.39 10.19,-30.77 10.65,-34.15 10.99,-37.46 11.34,-40.77 11.64,-44.61 11.94,-48.44 12.39,-51.31 12.83,-54.17 13.49,-56.48 14.15,-58.80 14.90,-60.45 15.65,-62.11 16.56,-63.27 17.46,-64.44 19.13,-65.23 20.81,-66.03 22.45,-66.32 24.08,-66.60 25.39,-66.70 26.70,-66.80 28.40,-66.15 30.10,-65.50 31.14,-64.23 32.18,-62.97 32.64,-61.06 33.10,-59.15 33.10,-56.86 33.10,-54.57 32.64,-52.06 32.19,-49.55 31.40,-46.75 30.62,-43.94 29.24,-40.91 27.85,-37.88 25.82,-34.14 23.79,-30.41 21.92,-27.24 20.05,-24.07 18.55,-21.45 17.05,-18.83 15.67,-16.55 14.29,-14.28 12.75,-12.04 11.22,-9.81 9.77,-8.10 8.33,-6.39 7.23,-5.29 6.12,-4.18 4.39,-2.45 2.65,-0.72 2.48,-0.60 2.30,-0.48 2.10,-0.42 1.89,-0.36 1.68,-0.37 1.47,-0.38 1.27,-0.46 1.07,-0.54 0.91,-0.68 0.75,-0.81 0.64,-0.99 0.53,-1.18 0.48,-1.38 0.44,-1.59 0.46,-1.80 0.48,-2.01 0.57,-2.21 0.66,-2.40 0.81,-2.55 0.95,-2.71 1.14,-2.81 1.33,-2.91 1.54,-2.94 1.75,-2.98 1.95,-2.95 2.16,-2.91 2.35,-2.81 2.54,-2.71 2.69,-2.56 2.83,-2.41 2.92,-2.21 3.01,-2.02 3.04,-1.81 3.06,-1.60 3.02,-1.39 2.97,-1.18 2.86,-1.00 2.75,-0.82 2.59,-0.68 2.43,-0.54 2.23,-0.46 2.03,-0.38 1.82,-0.37 1.61,-0.36 1.41,-0.42 1.20,-0.47 1.02,-0.59 0.85,-0.71 0.72,-0.88 0.59,-1.05 0.52,-1.25 0.45,-1.45 0.45,-1.66 0.45,-1.87 0.52,-2.08 0.59,-2.28 0.71,-2.45 0.84,-2.62 0.84,-2.62 0.84,-2.62 2.33,-4.40 3.81,-6.19 4.70,-7.38 5.60,-8.56 6.81,-10.20 8.03,-11.85 9.37,-14.13 10.72,-16.42 12.06,-18.67 13.40,-20.93 14.92,-23.57 16.43,-26.21 18.28,-29.31 20.12,-32.42 22.10,-36.02 24.07,-39.62 25.35,-42.35 26.62,-45.07 27.37,-47.70 28.11,-50.32 28.53,-52.47 28.96,-54.62 29.01,-56.53 29.05,-58.43 28.67,-60.25 28.28,-62.07 26.49,-62.39 24.71,-62.71 23.50,-62.54 22.29,-62.36 20.79,-61.39 19.30,-60.42 18.67,-59.07 18.05,-57.71 17.49,-55.64 16.94,-53.56 16.56,-50.84 16.19,-48.12 15.91,-44.22 15.62,-40.33 15.27,-36.94 14.92,-33.56 14.42,-29.99 13.92,-26.42 13.11,-22.89 12.29,-19.36 11.05,-15.52 9.81,-11.68 8.64,-9.29 7.47,-6.90 6.13,-4.82 4.78,-2.75 2.95,-0.93 1.13,0.88 1.00,1.01 0.88,1.13 0.73,1.22 0.58,1.31 0.42,1.36 0.25,1.41 0.08,1.42 -0.08,1.43 -0.25,1.40 -0.43,1.37 -0.58,1.30 -0.74,1.23 -0.88,1.12 -1.01,1.01 -1.12,0.87 -1.23,0.74 -1.30,0.58 -1.37,0.42 -1.40,0.25 -1.43,0.08 -1.42,-0.08 -1.41,-0.26 -1.36,-0.42 -1.31,-0.59 -1.22,-0.74 -1.13,-0.88 -1.13,-0.88 L -1.13,-0.88 Z"/></g><g transform="translate(133 98.5) rotate(0 -4.5 16.5)" stroke="none"><path fill="#f4f816" d="M 1.65,1.50 Q 1.65,1.50 0.38,3.18 -0.88,4.86 -1.38,6.57 -1.87,8.27 -2.40,11.27 -2.93,14.28 -3.30,17.15 -3.66,20.02 -3.96,22.42 -4.26,24.81 -4.68,26.94 -5.11,29.07 -5.44,30.43 -5.78,31.79 -6.19,31.97 -6.60,32.16 -6.69,32.41 -6.79,32.67 -6.95,32.89 -7.10,33.11 -7.31,33.29 -7.51,33.48 -7.75,33.60 -8.00,33.73 -8.26,33.79 -8.53,33.86 -8.80,33.86 -9.07,33.85 -9.34,33.79 -9.60,33.72 -9.84,33.59 -10.08,33.47 -10.29,33.29 -10.49,33.10 -10.65,32.88 -10.80,32.65 -10.90,32.40 -10.99,32.14 -11.02,31.87 -11.06,31.60 -11.02,31.33 -10.99,31.06 -9.34,26.85 -7.68,22.64 -7.59,22.45 -7.50,22.26 -7.36,22.10 -7.21,21.95 -7.02,21.85 -6.83,21.75 -6.62,21.72 -6.41,21.69 -6.20,21.72 -5.99,21.76 -5.81,21.86 -5.62,21.96 -5.47,22.11 -5.33,22.26 -5.24,22.46 -5.15,22.65 -5.13,22.86 -5.11,23.07 -5.15,23.28 -5.20,23.49 -5.31,23.67 -5.42,23.85 -5.58,23.99 -5.74,24.13 -5.94,24.20 -6.14,24.28 -6.35,24.29 -6.56,24.30 -6.77,24.25 -6.97,24.19 -7.15,24.07 -7.32,23.95 -7.45,23.78 -7.58,23.61 -7.65,23.41 -7.71,23.21 -7.71,22.99 -7.71,22.78 -7.64,22.58 -7.58,22.38 -7.45,22.21 -7.32,22.04 -7.14,21.92 -6.96,21.80 -6.76,21.75 -6.56,21.69 -6.34,21.70 -6.13,21.72 -5.93,21.80 -5.74,21.88 -5.58,22.01 -5.41,22.15 -5.30,22.33 -5.20,22.52 -5.15,22.72 -5.11,22.93 -5.13,23.14 -5.15,23.35 -5.15,23.35 -5.15,23.35 -5.87,27.76 -6.60,32.16 -6.69,32.41 -6.79,32.67 -6.95,32.89 -7.10,33.11 -7.31,33.29 -7.51,33.48 -7.75,33.60 -8.00,33.73 -8.26,33.79 -8.53,33.86 -8.80,33.86 -9.07,33.85 -9.34,33.79 -9.60,33.72 -9.84,33.59 -10.08,33.47 -10.29,33.29 -10.49,33.10 -10.65,32.88 -10.80,32.65 -10.90,32.40 -10.99,32.14 -11.02,31.87 -11.06,31.60 -11.02,31.33 -10.99,31.06 -11.12,30.72 -11.26,30.38 -10.95,29.15 -10.64,27.93 -10.22,26.00 -9.80,24.08 -9.47,21.68 -9.14,19.27 -8.70,16.27 -8.26,13.26 -7.57,9.87 -6.88,6.49 -5.87,3.97 -4.86,1.45 -3.26,-0.02 -1.65,-1.50 -1.45,-1.68 -1.24,-1.86 -1.00,-1.98 -0.76,-2.10 -0.50,-2.16 -0.24,-2.22 0.02,-2.22 0.29,-2.22 0.56,-2.15 0.82,-2.08 1.05,-1.95 1.29,-1.82 1.49,-1.64 1.69,-1.46 1.84,-1.23 1.99,-1.01 2.08,-0.76 2.18,-0.50 2.21,-0.23 2.24,0.02 2.20,0.29 2.16,0.56 2.06,0.81 1.97,1.06 1.81,1.28 1.65,1.50 1.65,1.50 L 1.65,1.50 Z"/></g><g transform="translate(131.5 104.5) rotate(0 8.75 12.75)" stroke="none"><path fill="#f4f816" d="M -0.85,-1.14 Q -0.85,-1.14 1.14,-3.27 3.14,-5.40 4.87,-6.33 6.61,-7.26 8.31,-7.69 10.01,-8.13 11.77,-7.82 13.54,-7.52 15.16,-6.36 16.78,-5.20 17.95,-2.36 19.11,0.48 18.34,5.65 17.58,10.81 16.15,14.71 14.73,18.61 12.74,22.09 10.76,25.57 9.39,27.52 8.01,29.46 6.75,30.48 5.48,31.50 5.35,31.66 5.22,31.83 5.05,31.95 4.87,32.07 4.67,32.13 4.46,32.18 4.25,32.17 4.04,32.16 3.84,32.08 3.64,32.00 3.48,31.87 3.32,31.73 3.21,31.55 3.10,31.36 3.06,31.16 3.01,30.95 3.03,30.74 3.06,30.53 3.15,30.33 3.24,30.14 3.38,29.99 3.53,29.83 3.72,29.73 3.91,29.63 4.11,29.60 4.32,29.57 4.53,29.60 4.74,29.64 4.93,29.74 5.12,29.83 5.26,29.99 5.41,30.14 5.50,30.34 5.59,30.53 5.61,30.74 5.63,30.95 5.59,31.16 5.54,31.37 5.43,31.55 5.32,31.73 5.16,31.87 5.00,32.01 4.80,32.08 4.60,32.16 4.39,32.17 4.18,32.18 3.97,32.13 3.77,32.07 3.59,31.95 3.42,31.83 3.29,31.66 3.16,31.49 3.09,31.29 3.03,31.09 3.03,30.88 3.03,30.66 3.10,30.46 3.16,30.26 3.16,30.26 3.16,30.26 3.38,28.49 3.60,26.71 4.69,24.72 5.77,22.72 7.53,19.65 9.29,16.57 10.58,13.16 11.88,9.75 12.78,5.84 13.69,1.92 13.37,0.31 13.05,-1.29 11.98,-2.12 10.91,-2.94 9.85,-2.75 8.79,-2.56 7.42,-2.03 6.05,-1.49 3.45,-0.17 0.85,1.14 0.70,1.22 0.55,1.31 0.39,1.36 0.22,1.40 0.05,1.41 -0.11,1.42 -0.28,1.38 -0.45,1.35 -0.60,1.28 -0.76,1.20 -0.89,1.09 -1.03,0.98 -1.13,0.85 -1.23,0.71 -1.30,0.55 -1.37,0.39 -1.39,0.22 -1.42,0.05 -1.41,-0.11 -1.39,-0.28 -1.34,-0.45 -1.28,-0.61 -1.19,-0.75 -1.10,-0.90 -0.98,-1.02 -0.85,-1.14 -0.85,-1.14 L -0.85,-1.14 Z"/></g><g transform="translate(160.5 79) rotate(0 5.75 26)" stroke="none"><path fill="#f4f816" d="M 0.94,-1.00 Q 0.94,-1.00 3.58,0.81 6.22,2.63 8.41,6.37 10.61,10.11 11.71,14.18 12.81,18.25 13.12,22.55 13.44,26.85 12.66,31.35 11.89,35.86 9.68,40.43 7.47,45.00 4.98,48.12 2.49,51.24 2.35,51.40 2.21,51.56 2.03,51.67 1.85,51.78 1.64,51.83 1.43,51.87 1.22,51.85 1.01,51.82 0.82,51.73 0.62,51.65 0.47,51.50 0.32,51.35 0.22,51.16 0.12,50.98 0.08,50.77 0.05,50.56 0.09,50.35 0.12,50.14 0.22,49.95 0.32,49.76 0.48,49.62 0.63,49.47 0.82,49.38 1.02,49.29 1.23,49.27 1.44,49.25 1.65,49.30 1.85,49.34 2.04,49.45 2.22,49.56 2.35,49.72 2.49,49.89 2.57,50.08 2.65,50.28 2.66,50.49 2.67,50.71 2.61,50.91 2.55,51.12 2.43,51.29 2.31,51.47 2.15,51.59 1.98,51.72 1.77,51.79 1.57,51.86 1.36,51.86 1.15,51.86 0.95,51.79 0.75,51.72 0.58,51.59 0.41,51.46 0.29,51.28 0.17,51.11 0.11,50.90 0.06,50.70 0.07,50.49 0.08,50.27 0.16,50.08 0.24,49.88 0.24,49.88 0.24,49.88 1.69,46.49 3.15,43.11 4.74,38.96 6.34,34.81 7.07,30.99 7.81,27.16 7.63,23.35 7.45,19.54 6.70,16.03 5.94,12.52 4.46,9.25 2.97,5.98 1.01,3.49 -0.94,1.00 -1.04,0.87 -1.15,0.74 -1.22,0.60 -1.30,0.45 -1.33,0.28 -1.37,0.12 -1.36,-0.03 -1.36,-0.20 -1.31,-0.36 -1.27,-0.52 -1.19,-0.66 -1.11,-0.81 -0.99,-0.93 -0.88,-1.05 -0.74,-1.14 -0.60,-1.23 -0.44,-1.29 -0.29,-1.34 -0.12,-1.36 0.03,-1.37 0.20,-1.35 0.36,-1.32 0.52,-1.26 0.67,-1.20 0.80,-1.10 0.94,-1.00 0.94,-1.00 L 0.94,-1.00 Z"/></g><g transform="translate(195.5 55) rotate(0 4.75 48.75)" stroke="none"><path fill="#f4f816" d="M 1.10,-0.78 Q 1.10,-0.78 4.93,3.84 8.75,8.47 11.55,13.65 14.35,18.83 16.17,24.49 17.99,30.15 18.51,36.24 19.03,42.33 16.46,51.01 13.88,59.68 10.41,66.94 6.93,74.19 3.50,80.14 0.08,86.08 -2.15,89.49 -4.39,92.90 -5.26,94.39 -6.13,95.88 -6.26,96.04 -6.39,96.21 -6.57,96.33 -6.74,96.45 -6.95,96.50 -7.16,96.56 -7.37,96.55 -7.58,96.53 -7.78,96.45 -7.97,96.37 -8.13,96.24 -8.30,96.10 -8.40,95.91 -8.51,95.73 -8.56,95.52 -8.60,95.32 -8.58,95.11 -8.55,94.89 -8.46,94.70 -8.37,94.51 -8.22,94.36 -8.08,94.20 -7.89,94.10 -7.70,94.01 -7.49,93.97 -7.28,93.94 -7.07,93.98 -6.86,94.01 -6.68,94.11 -6.49,94.21 -6.34,94.37 -6.20,94.52 -6.11,94.72 -6.02,94.91 -6.00,95.12 -5.98,95.33 -6.03,95.54 -6.07,95.75 -6.18,95.93 -6.29,96.11 -6.46,96.25 -6.62,96.38 -6.82,96.46 -7.01,96.54 -7.23,96.55 -7.44,96.56 -7.64,96.50 -7.85,96.44 -8.02,96.32 -8.20,96.20 -8.33,96.03 -8.45,95.86 -8.52,95.66 -8.59,95.46 -8.59,95.25 -8.58,95.03 -8.51,94.83 -8.45,94.63 -8.45,94.63 -8.45,94.63 -7.68,93.09 -6.92,91.54 -5.32,87.81 -3.73,84.08 -0.83,77.97 2.06,71.86 5.35,64.96 8.64,58.05 11.16,50.32 13.69,42.59 13.35,37.12 13.01,31.66 11.45,26.38 9.90,21.10 7.47,16.09 5.04,11.07 1.96,5.93 -1.10,0.78 -1.18,0.63 -1.26,0.49 -1.30,0.33 -1.34,0.17 -1.34,0.01 -1.34,-0.14 -1.31,-0.30 -1.27,-0.46 -1.20,-0.61 -1.12,-0.75 -1.01,-0.88 -0.91,-1.00 -0.77,-1.10 -0.64,-1.19 -0.49,-1.25 -0.33,-1.31 -0.17,-1.33 -0.01,-1.35 0.14,-1.33 0.31,-1.32 0.46,-1.26 0.61,-1.20 0.75,-1.11 0.88,-1.02 0.99,-0.90 1.10,-0.78 1.10,-0.78 L 1.10,-0.78 Z"/></g><g transform="translate(220 36) rotate(0 9.75 66.25)" stroke="none"><path fill="#f4f816" d="M 1.41,-1.64 Q 1.41,-1.64 3.58,-0.08 5.76,1.47 8.55,5.59 11.34,9.72 14.87,18.94 18.41,28.16 20.48,37.80 22.55,47.44 22.85,57.47 23.16,67.50 21.14,77.71 19.12,87.92 14.06,99.25 9.01,110.59 5.78,117.01 2.56,123.43 1.30,126.19 0.04,128.95 -0.07,129.12 -0.19,129.30 -0.36,129.43 -0.52,129.56 -0.72,129.63 -0.93,129.70 -1.14,129.70 -1.35,129.71 -1.55,129.64 -1.75,129.57 -1.92,129.45 -2.09,129.32 -2.22,129.14 -2.34,128.97 -2.40,128.77 -2.45,128.56 -2.44,128.35 -2.43,128.14 -2.36,127.94 -2.28,127.74 -2.14,127.58 -2.01,127.41 -1.83,127.30 -1.65,127.19 -1.44,127.14 -1.23,127.10 -1.02,127.12 -0.81,127.14 -0.62,127.23 -0.42,127.31 -0.27,127.46 -0.11,127.60 -0.01,127.79 0.08,127.98 0.12,128.19 0.15,128.40 0.12,128.61 0.09,128.82 -0.00,129.00 -0.10,129.19 -0.25,129.34 -0.40,129.49 -0.59,129.58 -0.79,129.67 -1.00,129.69 -1.21,129.72 -1.42,129.68 -1.62,129.63 -1.81,129.52 -1.99,129.42 -2.13,129.26 -2.27,129.09 -2.35,128.90 -2.43,128.70 -2.44,128.49 -2.46,128.28 -2.40,128.07 -2.35,127.87 -2.35,127.87 -2.35,127.87 -1.11,125.10 0.12,122.33 2.77,115.73 5.42,109.14 9.45,97.98 13.48,86.81 15.26,77.23 17.03,67.64 16.79,58.16 16.55,48.69 14.63,39.47 12.72,30.26 9.58,21.51 6.45,12.75 4.36,9.09 2.28,5.42 0.43,3.53 -1.41,1.64 -1.58,1.45 -1.76,1.25 -1.88,1.03 -2.01,0.80 -2.08,0.54 -2.14,0.29 -2.15,0.03 -2.15,-0.22 -2.09,-0.48 -2.03,-0.73 -1.92,-0.96 -1.80,-1.20 -1.63,-1.40 -1.46,-1.59 -1.25,-1.75 -1.03,-1.90 -0.79,-1.99 -0.55,-2.09 -0.29,-2.13 -0.03,-2.16 0.22,-2.13 0.48,-2.11 0.73,-2.02 0.97,-1.93 1.19,-1.79 1.41,-1.64 1.41,-1.64 L 1.41,-1.64 Z"/></g><g transform="translate(256.5 36.5) rotate(0 3.75 65.75)" stroke="none"><path fill="#f4f816" d="M 2.24,-0.67 Q 2.24,-0.67 3.13,2.19 4.02,5.06 6.59,13.13 9.16,21.20 11.56,30.29 13.97,39.37 15.43,49.13 16.89,58.88 15.84,71.20 14.80,83.52 11.72,93.73 8.64,103.94 3.91,112.08 -0.82,120.23 -2.74,123.61 -4.67,127.00 -4.80,127.17 -4.92,127.34 -5.10,127.46 -5.27,127.58 -5.48,127.64 -5.68,127.70 -5.90,127.69 -6.11,127.68 -6.31,127.60 -6.50,127.52 -6.67,127.38 -6.83,127.25 -6.94,127.07 -7.05,126.89 -7.10,126.68 -7.15,126.47 -7.12,126.26 -7.10,126.05 -7.01,125.86 -6.93,125.66 -6.78,125.51 -6.64,125.35 -6.45,125.25 -6.26,125.15 -6.05,125.11 -5.84,125.08 -5.63,125.11 -5.42,125.14 -5.24,125.24 -5.05,125.34 -4.90,125.49 -4.75,125.65 -4.66,125.84 -4.57,126.03 -4.55,126.24 -4.52,126.45 -4.57,126.66 -4.61,126.87 -4.72,127.05 -4.83,127.23 -4.99,127.37 -5.15,127.51 -5.35,127.59 -5.54,127.67 -5.76,127.68 -5.97,127.70 -6.17,127.64 -6.38,127.59 -6.55,127.47 -6.73,127.35 -6.86,127.18 -6.99,127.01 -7.06,126.81 -7.13,126.61 -7.13,126.40 -7.13,126.19 -7.07,125.99 -7.00,125.78 -7.00,125.78 -7.00,125.78 -5.33,122.27 -3.65,118.75 0.07,110.64 3.81,102.54 6.45,92.78 9.09,83.03 10.01,71.38 10.93,59.72 9.57,50.28 8.20,40.84 6.00,31.80 3.80,22.77 1.61,14.60 -0.57,6.43 -1.41,3.55 -2.24,0.67 -2.29,0.39 -2.34,0.11 -2.32,-0.16 -2.30,-0.44 -2.21,-0.71 -2.12,-0.98 -1.98,-1.22 -1.83,-1.46 -1.62,-1.66 -1.42,-1.86 -1.18,-2.00 -0.93,-2.14 -0.66,-2.23 -0.39,-2.31 -0.11,-2.32 0.16,-2.34 0.44,-2.28 0.72,-2.23 0.97,-2.11 1.23,-1.99 1.45,-1.81 1.67,-1.64 1.84,-1.41 2.02,-1.19 2.13,-0.93 2.24,-0.67 2.24,-0.67 L 2.24,-0.67 Z"/></g><g transform="translate(136.5 43) rotate(0 -34.75 34.5)" stroke="none"><path fill="#f4f816" d="M 1.39,1.29 Q 1.39,1.29 -0.07,3.41 -1.53,5.53 -4.32,7.49 -7.12,9.45 -13.78,13.82 -20.44,18.18 -27.60,24.09 -34.75,29.99 -41.50,36.62 -48.25,43.24 -53.33,49.04 -58.41,54.85 -61.20,59.03 -63.98,63.20 -65.35,64.98 -66.73,66.77 -66.86,66.94 -66.99,67.10 -67.17,67.22 -67.35,67.33 -67.56,67.38 -67.77,67.43 -67.98,67.42 -68.19,67.40 -68.38,67.31 -68.58,67.23 -68.74,67.09 -68.90,66.95 -69.00,66.76 -69.10,66.58 -69.14,66.37 -69.18,66.16 -69.16,65.95 -69.13,65.74 -69.03,65.55 -68.94,65.36 -68.79,65.21 -68.64,65.06 -68.45,64.96 -68.26,64.87 -68.05,64.84 -67.84,64.81 -67.63,64.85 -67.42,64.89 -67.23,65.00 -67.05,65.10 -66.91,65.26 -66.76,65.42 -66.68,65.61 -66.60,65.81 -66.58,66.02 -66.56,66.23 -66.61,66.44 -66.67,66.64 -66.78,66.82 -66.89,67.00 -67.06,67.13 -67.23,67.27 -67.43,67.34 -67.62,67.41 -67.84,67.42 -68.05,67.43 -68.25,67.36 -68.46,67.30 -68.63,67.18 -68.80,67.05 -68.92,66.88 -69.05,66.71 -69.11,66.50 -69.17,66.30 -69.17,66.09 -69.16,65.88 -69.09,65.68 -69.01,65.48 -69.01,65.48 -69.01,65.48 -68.19,63.38 -67.37,61.28 -64.99,56.31 -62.60,51.35 -57.56,45.12 -52.51,38.89 -45.57,32.08 -38.63,25.27 -31.17,19.18 -23.70,13.10 -16.94,8.87 -10.18,4.64 -7.77,3.29 -5.36,1.94 -3.37,0.32 -1.39,-1.29 -1.22,-1.43 -1.04,-1.58 -0.84,-1.69 -0.63,-1.79 -0.41,-1.84 -0.19,-1.89 0.03,-1.88 0.26,-1.88 0.48,-1.82 0.71,-1.76 0.91,-1.65 1.11,-1.54 1.28,-1.38 1.44,-1.23 1.57,-1.04 1.70,-0.84 1.77,-0.63 1.85,-0.41 1.87,-0.18 1.90,0.03 1.86,0.26 1.83,0.49 1.75,0.70 1.66,0.91 1.53,1.10 1.39,1.29 1.39,1.29 L 1.39,1.29 Z"/></g><g transform="translate(114.5 29.5) rotate(0 -34.75 46.5)" stroke="none"><path fill="#f4f816" d="M -0.29,1.79 Q -0.29,1.79 -2.84,1.73 -5.38,1.68 -8.12,3.08 -10.85,4.49 -16.92,10.18 -22.99,15.87 -29.19,23.41 -35.40,30.95 -41.18,39.96 -46.96,48.97 -52.67,60.33 -58.39,71.69 -61.19,78.36 -63.99,85.03 -65.30,87.86 -66.62,90.68 -66.73,90.86 -66.83,91.05 -66.99,91.19 -67.15,91.33 -67.35,91.41 -67.55,91.49 -67.76,91.50 -67.97,91.52 -68.18,91.46 -68.38,91.41 -68.56,91.29 -68.74,91.17 -68.87,91.00 -69.00,90.84 -69.07,90.64 -69.14,90.44 -69.14,90.22 -69.14,90.01 -69.08,89.81 -69.01,89.61 -68.88,89.44 -68.76,89.27 -68.58,89.14 -68.41,89.02 -68.20,88.96 -68.00,88.90 -67.79,88.91 -67.58,88.92 -67.38,89.00 -67.18,89.08 -67.02,89.21 -66.85,89.35 -66.74,89.53 -66.63,89.71 -66.58,89.92 -66.53,90.12 -66.55,90.33 -66.57,90.55 -66.66,90.74 -66.75,90.93 -66.89,91.09 -67.04,91.25 -67.22,91.35 -67.41,91.45 -67.62,91.49 -67.83,91.52 -68.04,91.49 -68.25,91.46 -68.44,91.36 -68.63,91.26 -68.77,91.11 -68.92,90.96 -69.01,90.77 -69.10,90.57 -69.13,90.36 -69.16,90.15 -69.11,89.94 -69.07,89.74 -69.07,89.74 -69.07,89.74 -68.15,86.76 -67.23,83.79 -64.77,76.81 -62.31,69.84 -57.01,57.89 -51.71,45.94 -45.77,36.62 -39.83,27.31 -33.34,19.47 -26.86,11.64 -19.97,5.51 -13.08,-0.62 -9.02,-2.01 -4.96,-3.40 -2.33,-2.59 0.29,-1.79 0.50,-1.72 0.71,-1.66 0.90,-1.55 1.09,-1.44 1.25,-1.29 1.41,-1.14 1.52,-0.95 1.64,-0.77 1.71,-0.56 1.77,-0.35 1.79,-0.13 1.81,0.08 1.77,0.29 1.74,0.51 1.65,0.71 1.56,0.91 1.43,1.08 1.30,1.26 1.13,1.40 0.96,1.53 0.76,1.63 0.56,1.72 0.35,1.76 0.13,1.80 -0.07,1.79 -0.29,1.79 -0.29,1.79 L -0.29,1.79 Z"/></g><g transform="translate(84 10) rotate(0 -37 63.75)" stroke="none"><path fill="#f4f816" d="M 0.51,2.27 Q 0.51,2.27 -2.59,3.06 -5.71,3.85 -9.73,6.84 -13.76,9.82 -19.15,15.56 -24.54,21.29 -32.09,32.79 -39.65,44.30 -45.91,56.17 -52.17,68.04 -56.95,79.71 -61.74,91.37 -65.06,101.75 -68.38,112.13 -69.65,116.64 -70.93,121.15 -71.02,121.34 -71.11,121.53 -71.25,121.69 -71.40,121.84 -71.58,121.94 -71.77,122.05 -71.98,122.08 -72.19,122.12 -72.40,122.09 -72.61,122.05 -72.80,121.96 -72.99,121.86 -73.13,121.70 -73.28,121.55 -73.37,121.36 -73.46,121.17 -73.49,120.96 -73.51,120.75 -73.47,120.54 -73.43,120.33 -73.32,120.15 -73.21,119.96 -73.05,119.82 -72.89,119.69 -72.69,119.61 -72.49,119.52 -72.28,119.51 -72.07,119.50 -71.86,119.55 -71.66,119.61 -71.48,119.73 -71.31,119.84 -71.18,120.01 -71.05,120.18 -70.98,120.38 -70.91,120.58 -70.90,120.79 -70.90,121.01 -70.97,121.21 -71.04,121.41 -71.16,121.58 -71.29,121.75 -71.46,121.87 -71.64,121.99 -71.84,122.05 -72.05,122.11 -72.26,122.10 -72.47,122.09 -72.67,122.01 -72.87,121.94 -73.03,121.80 -73.19,121.66 -73.31,121.48 -73.42,121.30 -73.46,121.09 -73.51,120.89 -73.49,120.68 -73.47,120.46 -73.47,120.46 -73.47,120.46 -72.32,115.92 -71.17,111.38 -68.78,100.46 -66.38,89.54 -61.79,77.48 -57.19,65.41 -50.85,53.25 -44.51,41.09 -36.62,29.19 -28.74,17.28 -22.82,11.24 -16.91,5.19 -11.92,2.10 -6.93,-0.98 -3.72,-1.63 -0.51,-2.27 -0.23,-2.30 0.04,-2.33 0.32,-2.29 0.60,-2.25 0.86,-2.15 1.12,-2.04 1.35,-1.88 1.58,-1.72 1.76,-1.50 1.94,-1.29 2.07,-1.04 2.19,-0.78 2.26,-0.51 2.32,-0.23 2.31,0.04 2.31,0.32 2.24,0.59 2.16,0.86 2.03,1.11 1.89,1.36 1.70,1.56 1.51,1.77 1.28,1.93 1.04,2.08 0.78,2.18 0.51,2.27 0.51,2.27 L 0.51,2.27 Z"/></g></svg>