<svg version="1.1" xmlns="http://www.w3.org/2000/svg" viewBox="0 0 603.426751353222 97" width="603.426751353222" height="97">
  <!-- svg-source:excalidraw -->
  
  <defs>
    <style class="style-fonts">
      @font-face {
        font-family: "Virgil";
        src: url("https://excalidraw.com/Virgil.woff2");
      }
      @font-face {
        font-family: "Cascadia";
        src: url("https://excalidraw.com/Cascadia.woff2");
      }
    </style>
    
  </defs>
  <rect x="0" y="0" width="603.426751353222" height="97" fill="#ffffff"/><g stroke-linecap="round" transform="translate(10 46.5) rotate(0 28.25 20.25)"><path d="M10.13 0 M10.13 0 C20.48 0, 30.83 0, 46.38 0 M10.13 0 C24.28 0, 38.43 0, 46.38 0 M46.38 0 C53.13 0, 56.5 3.38, 56.5 10.13 M46.38 0 C53.13 0, 56.5 3.38, 56.5 10.13 M56.5 10.13 C56.5 16.36, 56.5 22.6, 56.5 30.38 M56.5 10.13 C56.5 15.88, 56.5 21.63, 56.5 30.38 M56.5 30.38 C56.5 37.13, 53.13 40.5, 46.38 40.5 M56.5 30.38 C56.5 37.13, 53.13 40.5, 46.38 40.5 M46.38 40.5 C33.15 40.5, 19.93 40.5, 10.13 40.5 M46.38 40.5 C36.85 40.5, 27.33 40.5, 10.13 40.5 M10.13 40.5 C3.38 40.5, 0 37.13, 0 30.38 M10.13 40.5 C3.38 40.5, 0 37.13, 0 30.38 M0 30.38 C0 26.12, 0 21.87, 0 10.13 M0 30.38 C0 24.34, 0 18.3, 0 10.13 M0 10.13 C0 3.38, 3.38 0, 10.13 0 M0 10.13 C0 3.38, 3.38 0, 10.13 0" stroke="#1e1e1e" stroke-width="2" fill="none"/></g><g stroke-linecap="round"><g transform="translate(76.1113838836386 69.35434226786079) rotate(0 26.377324748587057 -11.306000590112927)"><path d="M0 0 C8.79 -3.77, 43.96 -18.84, 52.75 -22.61 M0 0 C8.79 -3.77, 43.96 -18.84, 52.75 -22.61" stroke="#1e1e1e" stroke-width="2" fill="none"/></g><g transform="translate(76.1113838836386 69.35434226786079) rotate(0 26.377324748587057 -11.306000590112927)"><path d="M31.83 -2.97 C38.07 -8.82, 44.31 -14.68, 52.75 -22.61 M31.83 -2.97 C36.46 -7.31, 41.09 -11.66, 52.75 -22.61" stroke="#1e1e1e" stroke-width="2" fill="none"/></g><g transform="translate(76.1113838836386 69.35434226786079) rotate(0 26.377324748587057 -11.306000590112927)"><path d="M24.1 -21.01 C32.64 -21.49, 41.19 -21.96, 52.75 -22.61 M24.1 -21.01 C30.44 -21.36, 36.78 -21.72, 52.75 -22.61" stroke="#1e1e1e" stroke-width="2" fill="none"/></g></g><mask/><g stroke-linecap="round" transform="translate(140.09090909090907 10) rotate(0 33.5 38.5)"><path d="M16.75 0 M16.75 0 C25.52 0, 34.29 0, 50.25 0 M16.75 0 C23.84 0, 30.93 0, 50.25 0 M50.25 0 C61.42 0, 67 5.58, 67 16.75 M50.25 0 C61.42 0, 67 5.58, 67 16.75 M67 16.75 C67 33.13, 67 49.5, 67 60.25 M67 16.75 C67 28.95, 67 41.16, 67 60.25 M67 60.25 C67 71.42, 61.42 77, 50.25 77 M67 60.25 C67 71.42, 61.42 77, 50.25 77 M50.25 77 C37.09 77, 23.93 77, 16.75 77 M50.25 77 C37.63 77, 25.01 77, 16.75 77 M16.75 77 C5.58 77, 0 71.42, 0 60.25 M16.75 77 C5.58 77, 0 71.42, 0 60.25 M0 60.25 C0 49.64, 0 39.02, 0 16.75 M0 60.25 C0 44.71, 0 29.18, 0 16.75 M0 16.75 C0 5.58, 5.58 0, 16.75 0 M0 16.75 C0 5.58, 5.58 0, 16.75 0" stroke="#1e1e1e" stroke-width="2" fill="none"/></g><g stroke-linecap="round"><g transform="translate(213.62692341400506 47.396911544702384) rotate(0 24.574647824974917 10.229056864035197)"><path d="M0 0 C8.19 3.41, 40.96 17.05, 49.15 20.46 M0 0 C8.19 3.41, 40.96 17.05, 49.15 20.46" stroke="#1e1e1e" stroke-width="2" fill="none"/></g><g transform="translate(213.62692341400506 47.396911544702384) rotate(0 24.574647824974917 10.229056864035197)"><path d="M22.56 19.25 C28.05 19.5, 33.54 19.75, 49.15 20.46 M22.56 19.25 C29.83 19.58, 37.1 19.91, 49.15 20.46" stroke="#1e1e1e" stroke-width="2" fill="none"/></g><g transform="translate(213.62692341400506 47.396911544702384) rotate(0 24.574647824974917 10.229056864035197)"><path d="M29.56 2.44 C33.6 6.16, 37.65 9.88, 49.15 20.46 M29.56 2.44 C34.91 7.37, 40.27 12.29, 49.15 20.46" stroke="#1e1e1e" stroke-width="2" fill="none"/></g></g><mask/><g stroke-linecap="round" transform="translate(271.98376623376623 52.14285714285717) rotate(0 29 17.428571428571416)"><path d="M8.71 0 M8.71 0 C22.04 0, 35.36 0, 49.29 0 M8.71 0 C22.87 0, 37.03 0, 49.29 0 M49.29 0 C55.1 0, 58 2.9, 58 8.71 M49.29 0 C55.1 0, 58 2.9, 58 8.71 M58 8.71 C58 12.21, 58 15.7, 58 26.14 M58 8.71 C58 13.08, 58 17.45, 58 26.14 M58 26.14 C58 31.95, 55.1 34.86, 49.29 34.86 M58 26.14 C58 31.95, 55.1 34.86, 49.29 34.86 M49.29 34.86 C39.53 34.86, 29.78 34.86, 8.71 34.86 M49.29 34.86 C36.51 34.86, 23.73 34.86, 8.71 34.86 M8.71 34.86 C2.9 34.86, 0 31.95, 0 26.14 M8.71 34.86 C2.9 34.86, 0 31.95, 0 26.14 M0 26.14 C0 21.98, 0 17.83, 0 8.71 M0 26.14 C0 19.93, 0 13.72, 0 8.71 M0 8.71 C0 2.9, 2.9 0, 8.71 0 M0 8.71 C0 2.9, 2.9 0, 8.71 0" stroke="#1e1e1e" stroke-width="2" fill="none"/></g><g stroke-linecap="round" transform="translate(530.4981799246506 47.21428571428572) rotate(0 31.464285714285722 19.89285714285714)"><path d="M9.95 0 M9.95 0 C19.39 0, 28.82 0, 52.98 0 M9.95 0 C23.6 0, 37.25 0, 52.98 0 M52.98 0 C59.61 0, 62.93 3.32, 62.93 9.95 M52.98 0 C59.61 0, 62.93 3.32, 62.93 9.95 M62.93 9.95 C62.93 15.88, 62.93 21.81, 62.93 29.84 M62.93 9.95 C62.93 15.94, 62.93 21.94, 62.93 29.84 M62.93 29.84 C62.93 36.47, 59.61 39.79, 52.98 39.79 M62.93 29.84 C62.93 36.47, 59.61 39.79, 52.98 39.79 M52.98 39.79 C42.46 39.79, 31.93 39.79, 9.95 39.79 M52.98 39.79 C36.08 39.79, 19.18 39.79, 9.95 39.79 M9.95 39.79 C3.32 39.79, 0 36.47, 0 29.84 M9.95 39.79 C3.32 39.79, 0 36.47, 0 29.84 M0 29.84 C0 24.19, 0 18.54, 0 9.95 M0 29.84 C0 23.19, 0 16.54, 0 9.95 M0 9.95 C0 3.32, 3.32 0, 9.95 0 M0 9.95 C0 3.32, 3.32 0, 9.95 0" stroke="#1e1e1e" stroke-width="2" fill="none"/></g><g stroke-linecap="round" transform="translate(396.4819461584167 10) rotate(0 33.5 38.5)"><path d="M16.75 0 M16.75 0 C29.62 0, 42.49 0, 50.25 0 M16.75 0 C24.99 0, 33.22 0, 50.25 0 M50.25 0 C61.42 0, 67 5.58, 67 16.75 M50.25 0 C61.42 0, 67 5.58, 67 16.75 M67 16.75 C67 25.73, 67 34.72, 67 60.25 M67 16.75 C67 25.52, 67 34.28, 67 60.25 M67 60.25 C67 71.42, 61.42 77, 50.25 77 M67 60.25 C67 71.42, 61.42 77, 50.25 77 M50.25 77 C38.06 77, 25.87 77, 16.75 77 M50.25 77 C39.09 77, 27.93 77, 16.75 77 M16.75 77 C5.58 77, 0 71.42, 0 60.25 M16.75 77 C5.58 77, 0 71.42, 0 60.25 M0 60.25 C0 43.08, 0 25.91, 0 16.75 M0 60.25 C0 43.52, 0 26.78, 0 16.75 M0 16.75 C0 5.58, 5.58 0, 16.75 0 M0 16.75 C0 5.58, 5.58 0, 16.75 0" stroke="#1e1e1e" stroke-width="2" fill="none"/></g><g stroke-linecap="round"><g transform="translate(336.3265402901983 69.34568471630396) rotate(0 26.377324748587057 -10.075187482683937)"><path d="M0 0 C8.79 -3.36, 43.96 -16.79, 52.75 -20.15 M0 0 C8.79 -3.36, 43.96 -16.79, 52.75 -20.15" stroke="#1e1e1e" stroke-width="2" fill="none"/></g><g transform="translate(336.3265402901983 69.34568471630396) rotate(0 26.377324748587057 -10.075187482683937)"><path d="M31.41 -1.66 C37.61 -7.03, 43.8 -12.4, 52.75 -20.15 M31.41 -1.66 C38.97 -8.21, 46.52 -14.75, 52.75 -20.15" stroke="#1e1e1e" stroke-width="2" fill="none"/></g><g transform="translate(336.3265402901983 69.34568471630396) rotate(0 26.377324748587057 -10.075187482683937)"><path d="M24.52 -19.7 C32.72 -19.83, 40.91 -19.96, 52.75 -20.15 M24.52 -19.7 C34.52 -19.86, 44.51 -20.02, 52.75 -20.15" stroke="#1e1e1e" stroke-width="2" fill="none"/></g></g><mask/><g stroke-linecap="round"><g transform="translate(473.215009147971 46.07591269811528) rotate(0 25.029193279520342 11.239686889152077)"><path d="M0 0 C8.34 3.75, 41.72 18.73, 50.06 22.48 M0 0 C8.34 3.75, 41.72 18.73, 50.06 22.48" stroke="#1e1e1e" stroke-width="2" fill="none"/></g><g transform="translate(473.215009147971 46.07591269811528) rotate(0 25.029193279520342 11.239686889152077)"><path d="M22.69 20.48 C29.57 20.98, 36.44 21.48, 50.06 22.48 M22.69 20.48 C30.43 21.04, 38.16 21.61, 50.06 22.48" stroke="#1e1e1e" stroke-width="2" fill="none"/></g><g transform="translate(473.215009147971 46.07591269811528) rotate(0 25.029193279520342 11.239686889152077)"><path d="M30.38 3.36 C35.33 8.16, 40.27 12.96, 50.06 22.48 M30.38 3.36 C35.94 8.76, 41.5 14.16, 50.06 22.48" stroke="#1e1e1e" stroke-width="2" fill="none"/></g></g><mask/></svg>